<?xml version="1.0" standalone="no"?>
<!DOCTYPE svg PUBLIC "-//W3C//DTD SVG 1.1//EN" "http://www.w3.org/Graphics/SVG/1.1/DTD/svg11.dtd" >
<svg xmlns="http://www.w3.org/2000/svg">
<metadata>Generated by IcoMoon</metadata>
<defs>
<font id="Presslabs-Particles" horiz-adv-x="1024">
<font-face units-per-em="1024" ascent="960" descent="-64" />
<missing-glyph horiz-adv-x="1024" />
<glyph unicode="&#x20;" horiz-adv-x="512" d="" />
<glyph unicode="&#xe600;" glyph-name="arrow-up" d="M701.021 653.263c-12.049-10.332-30.201-8.937-40.529 3.118l-104.19 121.554c-5.344 6.234-15.559 2.455-15.559-5.756v-749.155c0-15.477-11.894-28.795-27.354-29.523-16.506-0.777-30.133 12.376-30.133 28.711v749.965c0 8.211-10.216 11.99-15.559 5.756l-104.188-121.553c-10.332-12.055-28.477-13.45-40.531-3.118-12.053 10.33-13.449 28.476-3.117 40.529l169.887 198.205c3.666 4.277 8.376 7.632 13.766 9.268 11.259 3.417 23.020-0.268 30.307-8.771l170.316-198.702c10.334-12.052 8.937-30.199-3.116-40.528z" />
<glyph unicode="&#xe601;" glyph-name="arrow-ne" d="M523.484 726.801c1.214-15.825 15.036-27.675 30.863-26.454l159.625 12.278c8.187 0.63 12.738-9.266 6.932-15.072l-529.732-529.732c-10.944-10.944-11.951-28.771-1.533-40.218 11.122-12.221 30.058-12.557 41.609-1.006l530.305 530.305c5.806 5.806 15.702 1.255 15.072-6.932l-12.279-159.622c-1.218-15.83 10.626-29.647 26.455-30.865 15.827-1.218 29.645 10.626 30.862 26.454l20.024 260.281c0.432 5.616-0.526 11.319-3.181 16.288-5.545 10.378-16.466 16.088-27.633 15.228l-260.935-20.071c-15.828-1.216-27.672-15.035-26.454-30.862z" />
<glyph unicode="&#xe602;" glyph-name="arrow-right" d="M717.263 637.021c-10.332-12.049-8.937-30.201 3.118-40.529l121.554-104.19c6.234-5.344 2.455-15.559-5.756-15.559h-749.155c-15.477 0-28.795-11.894-29.523-27.354-0.777-16.506 12.376-30.133 28.711-30.133h749.965c8.211 0 11.99-10.216 5.756-15.559l-121.553-104.188c-12.055-10.332-13.45-28.477-3.118-40.531 10.33-12.053 28.476-13.449 40.529-3.117l198.205 169.887c4.277 3.666 7.632 8.376 9.268 13.766 3.417 11.259-0.268 23.020-8.771 30.307l-198.702 170.316c-12.052 10.334-30.199 8.937-40.528-3.116z" />
<glyph unicode="&#xe603;" glyph-name="arrow-se" d="M790.801 436.516c-15.825-1.214-27.675-15.036-26.454-30.863l12.278-159.625c0.63-8.187-9.266-12.738-15.072-6.932l-529.732 529.732c-10.944 10.944-28.771 11.951-40.218 1.533-12.221-11.122-12.557-30.058-1.006-41.609l530.305-530.305c5.806-5.806 1.255-15.702-6.932-15.072l-159.622 12.279c-15.83 1.218-29.647-10.626-30.865-26.455-1.218-15.827 10.626-29.645 26.454-30.862l260.281-20.024c5.616-0.432 11.319 0.526 16.288 3.181 10.378 5.545 16.088 16.466 15.228 27.633l-20.071 260.935c-1.216 15.828-15.035 27.672-30.862 26.454z" />
<glyph unicode="&#xe604;" glyph-name="arrow-down" d="M701.021 242.737c-12.049 10.332-30.201 8.937-40.529-3.118l-104.19-121.554c-5.344-6.234-15.559-2.455-15.559 5.756v749.155c0 15.477-11.894 28.795-27.354 29.523-16.506 0.777-30.133-12.376-30.133-28.711v-749.965c0-8.211-10.216-11.99-15.559-5.756l-104.188 121.553c-10.332 12.055-28.477 13.45-40.531 3.118-12.053-10.33-13.449-28.476-3.117-40.529l169.887-198.205c3.666-4.277 8.376-7.632 13.766-9.268 11.259-3.417 23.020 0.268 30.307 8.771l170.316 198.702c10.334 12.052 8.937 30.199-3.116 40.528z" />
<glyph unicode="&#xe605;" glyph-name="arrow-sw" d="M500.516 169.199c-1.214 15.825-15.036 27.675-30.863 26.454l-159.625-12.278c-8.187-0.63-12.738 9.266-6.932 15.072l529.732 529.732c10.944 10.944 11.951 28.771 1.533 40.218-11.122 12.221-30.058 12.557-41.609 1.006l-530.305-530.305c-5.806-5.806-15.702-1.255-15.072 6.932l12.279 159.622c1.218 15.83-10.626 29.647-26.455 30.865-15.827 1.218-29.645-10.626-30.862-26.454l-20.024-260.281c-0.432-5.616 0.526-11.319 3.181-16.288 5.545-10.378 16.466-16.088 27.633-15.228l260.935 20.071c15.828 1.216 27.672 15.035 26.454 30.862z" />
<glyph unicode="&#xe606;" glyph-name="arrow-left" d="M306.737 258.979c10.332 12.049 8.937 30.201-3.118 40.529l-121.554 104.19c-6.234 5.344-2.455 15.559 5.756 15.559h749.155c15.477 0 28.795 11.894 29.523 27.354 0.777 16.506-12.376 30.133-28.711 30.133h-749.965c-8.211 0-11.99 10.216-5.756 15.559l121.553 104.188c12.055 10.332 13.45 28.477 3.118 40.531-10.33 12.053-28.476 13.449-40.529 3.117l-198.205-169.887c-4.277-3.666-7.632-8.376-9.268-13.766-3.417-11.259 0.268-23.020 8.771-30.307l198.702-170.316c12.052-10.334 30.199-8.937 40.528 3.116z" />
<glyph unicode="&#xe607;" glyph-name="arrow-nw" d="M233.199 459.484c15.825 1.214 27.675 15.036 26.454 30.863l-12.278 159.625c-0.63 8.187 9.266 12.738 15.072 6.932l529.732-529.732c10.944-10.944 28.771-11.951 40.218-1.533 12.221 11.122 12.557 30.058 1.006 41.609l-530.305 530.305c-5.806 5.806-1.255 15.702 6.932 15.072l159.622-12.279c15.83-1.218 29.647 10.626 30.865 26.455 1.218 15.827-10.626 29.645-26.454 30.862l-260.281 20.024c-5.616 0.432-11.319-0.526-16.288-3.181-10.378-5.545-16.088-16.466-15.228-27.633l20.071-260.935c1.216-15.828 15.035-27.672 30.862-26.454z" />
<glyph unicode="&#xe608;" glyph-name="return" d="M114.579 444.664c0.033-0.286 0.086-0.565 0.129-0.849 0.115-0.785 0.257-1.56 0.437-2.323 0.071-0.295 0.146-0.587 0.226-0.88 0.211-0.774 0.452-1.532 0.727-2.276 0.089-0.242 0.171-0.485 0.266-0.725 0.375-0.94 0.789-1.862 1.263-2.748 0.016-0.027 0.027-0.058 0.040-0.084 0.499-0.929 1.053-1.817 1.651-2.68 0.151-0.217 0.319-0.423 0.477-0.636 0.454-0.616 0.929-1.217 1.432-1.793 0.226-0.259 0.459-0.514 0.696-0.767 0.512-0.545 1.048-1.064 1.602-1.567 0.219-0.199 0.43-0.403 0.656-0.596 0.802-0.68 1.634-1.323 2.511-1.908 0.009-0.007 0.016-0.013 0.024-0.020l169.962-113.309c12.694-8.462 30.204-5.792 38.896 6.747 8.855 12.771 5.481 30.263-7.394 38.848l-82.412 54.941c-3.648 2.434-1.926 8.121 2.458 8.121h519.868c77.671 0 140.929 62.894 141.523 140.425 0.113 14.726-10.876 27.624-25.56 28.725-16.269 1.221-29.847-11.616-29.847-27.626 0-47.485-38.631-86.116-86.116-86.116h-519.864c-4.386 0-6.109 5.687-2.458 8.121l82.412 54.941c12.731 8.487 16.173 25.689 7.684 38.42-5.337 8.008-14.123 12.341-23.078 12.339-5.28 0-10.619-1.507-15.342-4.657l-170.729-113.821c-0.009-0.007-0.016-0.013-0.024-0.020-0.875-0.587-1.709-1.228-2.511-1.908-0.226-0.191-0.437-0.397-0.656-0.596-0.556-0.503-1.090-1.022-1.605-1.569-0.237-0.253-0.468-0.505-0.696-0.765-0.503-0.576-0.977-1.177-1.434-1.793-0.157-0.213-0.326-0.419-0.477-0.636-0.596-0.86-1.153-1.751-1.651-2.68-0.016-0.027-0.027-0.058-0.040-0.084-0.472-0.887-0.887-1.806-1.263-2.748-0.095-0.239-0.177-0.481-0.266-0.725-0.273-0.745-0.516-1.503-0.727-2.279-0.080-0.293-0.155-0.583-0.226-0.878-0.18-0.762-0.321-1.538-0.437-2.325-0.042-0.284-0.095-0.563-0.129-0.849-0.122-1.051-0.199-2.117-0.199-3.201s0.080-2.141 0.199-3.192z" />
<glyph unicode="&#xe609;" glyph-name="concentric" d="M425.776 564.102c-0.086 1.044-0.219 2.083-0.423 3.114-0.002 0.013-0.002 0.024-0.004 0.038l-40.242 201.207c-3.001 15.008-17.594 24.751-32.602 21.735-15.003-3.001-24.736-17.594-21.735-32.6l19.425-97.123c0.86-4.3-4.38-7.106-7.481-4.003l-237.949 237.945c-10.821 10.818-28.362 10.818-39.182 0-10.818-10.821-10.818-28.362 0-39.182l237.949-237.949c3.101-3.101 0.297-8.341-4.003-7.481l-97.125 19.423c-15.003 3.008-29.598-6.727-32.6-21.735-3.001-15.005 6.731-29.598 21.735-32.6l201.207-40.24c0.009-0.002 0.020-0.002 0.029-0.004 0.782-0.155 1.571-0.266 2.361-0.352 0.115-0.013 0.228-0.038 0.341-0.049 0.898-0.086 1.798-0.133 2.7-0.133 0.9 0 1.8 0.047 2.695 0.133 0.168 0.016 0.332 0.053 0.501 0.073 0.729 0.084 1.456 0.182 2.179 0.324 0.111 0.022 0.219 0.058 0.328 0.080 0.774 0.162 1.543 0.346 2.303 0.574 0.033 0.011 0.066 0.024 0.102 0.035 2.525 0.771 4.96 1.904 7.223 3.411 0.115 0.078 0.222 0.168 0.337 0.246 0.632 0.434 1.257 0.88 1.857 1.372 0.716 0.585 1.405 1.206 2.066 1.868 0.767 0.767 1.463 1.574 2.121 2.403 0.18 0.228 0.339 0.465 0.512 0.696 0.472 0.636 0.92 1.283 1.33 1.948 0.16 0.259 0.313 0.519 0.463 0.782 0.399 0.696 0.765 1.405 1.099 2.128 0.106 0.231 0.222 0.459 0.321 0.692 0.401 0.933 0.76 1.882 1.055 2.846 0.009 0.027 0.020 0.053 0.029 0.080 0.304 1.008 0.541 2.032 0.727 3.063 0.047 0.262 0.073 0.523 0.113 0.787 0.115 0.758 0.202 1.516 0.255 2.279 0.024 0.346 0.040 0.692 0.049 1.042 0.022 0.743 0.011 1.485-0.024 2.228-0.013 0.299-0.016 0.598-0.042 0.9zM720.468 278.714c-3.101 3.101-0.297 8.341 4.003 7.481l97.123-19.425c14.988-3.008 29.598 6.725 32.6 21.735 3.001 15.005-6.729 29.598-21.735 32.6l-201.207 40.242c-0.011 0.002-0.022 0.002-0.033 0.004-1.024 0.202-2.059 0.337-3.096 0.423-0.332 0.027-0.663 0.031-0.993 0.047-0.7 0.033-1.401 0.044-2.101 0.024-0.386-0.011-0.769-0.029-1.155-0.055-0.705-0.049-1.405-0.133-2.103-0.235-0.315-0.047-0.632-0.080-0.946-0.137-1.006-0.184-2.006-0.414-2.99-0.711-0.093-0.029-0.184-0.069-0.279-0.098-0.898-0.279-1.78-0.61-2.649-0.982-0.259-0.111-0.51-0.237-0.767-0.357-0.7-0.326-1.387-0.68-2.064-1.066-0.273-0.157-0.543-0.315-0.811-0.479-0.658-0.408-1.301-0.851-1.931-1.321-0.235-0.173-0.474-0.335-0.703-0.516-0.829-0.658-1.636-1.354-2.4-2.121-0.767-0.767-1.465-1.574-2.123-2.405-0.177-0.224-0.337-0.459-0.505-0.689-0.477-0.638-0.924-1.29-1.339-1.959-0.157-0.255-0.308-0.512-0.457-0.774-0.401-0.7-0.769-1.412-1.104-2.139-0.106-0.228-0.217-0.452-0.317-0.683-0.406-0.942-0.767-1.895-1.062-2.868-0.007-0.020-0.013-0.038-0.020-0.058-0.306-1.013-0.543-2.039-0.729-3.074-0.047-0.25-0.071-0.505-0.109-0.758-0.117-0.769-0.206-1.54-0.259-2.314-0.022-0.337-0.038-0.672-0.049-1.011-0.024-0.76-0.013-1.516 0.027-2.276 0.016-0.286 0.018-0.57 0.040-0.853 0.086-1.055 0.222-2.106 0.428-3.145 0.002-0.007 0.002-0.013 0.002-0.020l40.242-201.207c2.633-13.17 14.201-22.278 27.136-22.278 1.8 0 3.631 0.175 5.464 0.543 15.005 3.001 24.736 17.594 21.735 32.6l-19.425 97.123c-0.86 4.3 4.38 7.106 7.481 4.003l237.949-237.949c5.408-5.408 12.501-8.114 19.591-8.114 7.088 0 14.179 2.704 19.587 8.11 10.783 10.779 10.202 28.987-0.578 39.77l-237.366 237.375zM425.82 332.8c0.038 0.743 0.049 1.485 0.024 2.228-0.011 0.348-0.027 0.694-0.049 1.042-0.051 0.762-0.14 1.523-0.255 2.279-0.040 0.262-0.066 0.525-0.113 0.787-0.186 1.031-0.423 2.055-0.727 3.063-0.009 0.027-0.020 0.053-0.029 0.080-0.295 0.964-0.654 1.911-1.055 2.846-0.1 0.233-0.213 0.461-0.321 0.692-0.335 0.723-0.7 1.432-1.099 2.128-0.151 0.264-0.304 0.523-0.463 0.782-0.412 0.665-0.858 1.312-1.33 1.948-0.173 0.233-0.332 0.47-0.512 0.696-0.658 0.829-1.354 1.636-2.121 2.403-0.767 0.765-1.574 1.463-2.403 2.121-0.228 0.18-0.465 0.341-0.698 0.512-0.634 0.472-1.279 0.918-1.944 1.328-0.262 0.162-0.525 0.315-0.789 0.468-0.692 0.397-1.394 0.758-2.112 1.090-0.237 0.111-0.47 0.226-0.709 0.33-0.922 0.397-1.857 0.749-2.81 1.042-0.038 0.011-0.073 0.029-0.111 0.040-1.008 0.304-2.030 0.541-3.059 0.727-0.259 0.047-0.523 0.073-0.785 0.113-0.76 0.115-1.52 0.204-2.285 0.255-0.344 0.024-0.687 0.038-1.033 0.049-0.749 0.022-1.496 0.011-2.243-0.027-0.297-0.016-0.59-0.018-0.887-0.042-1.046-0.086-2.088-0.219-3.123-0.423-0.011-0.002-0.024-0.002-0.035-0.004l-201.207-40.242c-15.005-3.001-24.736-17.594-21.735-32.6s17.592-24.738 32.602-21.735l97.123 19.425c4.3 0.86 7.106-4.38 4.003-7.481l-237.947-237.954c-10.818-10.821-10.818-28.362 0-39.182 5.41-5.408 12.501-8.114 19.591-8.114s14.181 2.706 19.591 8.114l237.949 237.949c3.101 3.101 8.341 0.297 7.481-4.003l-19.243-96.218c-2.99-14.954 6.14-30.115 21.032-33.395 2.008-0.443 4.012-0.656 5.984-0.652 12.935 0 24.505 9.105 27.138 22.278l40.242 201.207c0.002 0.013 0.002 0.024 0.004 0.038 0.204 1.031 0.337 2.070 0.423 3.114 0.027 0.299 0.029 0.598 0.044 0.9zM598.18 563.233c-0.038-0.758-0.049-1.516-0.027-2.276 0.011-0.337 0.024-0.674 0.049-1.011 0.053-0.776 0.142-1.545 0.259-2.314 0.038-0.253 0.064-0.505 0.109-0.758 0.186-1.035 0.426-2.061 0.729-3.074 0.007-0.020 0.013-0.038 0.020-0.058 0.295-0.971 0.658-1.926 1.062-2.866 0.1-0.231 0.213-0.457 0.317-0.685 0.335-0.725 0.703-1.438 1.104-2.137 0.149-0.259 0.299-0.519 0.457-0.774 0.414-0.669 0.862-1.319 1.339-1.959 0.171-0.228 0.328-0.463 0.505-0.689 0.658-0.829 1.356-1.638 2.123-2.405 0.661-0.661 1.35-1.281 2.064-1.866 0.641-0.525 1.308-1.006 1.982-1.465 0.071-0.049 0.137-0.106 0.211-0.155 2.292-1.527 4.761-2.675 7.321-3.447h0.002c0.778-0.235 1.565-0.423 2.356-0.587 0.093-0.020 0.184-0.049 0.277-0.069 0.727-0.144 1.458-0.242 2.194-0.326 0.164-0.020 0.324-0.053 0.488-0.071 0.895-0.086 1.795-0.133 2.695-0.133s1.802 0.047 2.7 0.133c0.117 0.011 0.233 0.038 0.35 0.051 0.787 0.086 1.574 0.197 2.352 0.35 0.011 0.002 0.022 0.002 0.031 0.004l201.207 40.24c15.005 3.001 24.736 17.594 21.735 32.6-2.999 15.005-17.594 24.736-32.6 21.735l-97.123-19.423c-4.3-0.86-7.106 4.38-4.003 7.481l237.306 237.309c10.785 10.785 11.599 28.477 1.011 39.457-10.787 11.189-28.603 11.311-39.546 0.37l-237.949-237.947c-3.101-3.101-8.341-0.297-7.481 4.003l19.425 97.123c3.001 15.005-6.729 29.598-21.735 32.6-14.981 3.006-29.598-6.727-32.6-21.735l-40.242-201.207c-0.002-0.007-0.002-0.013-0.002-0.020-0.206-1.042-0.341-2.090-0.428-3.145-0.027-0.284-0.029-0.567-0.044-0.853z" />
<glyph unicode="&#xe60a;" glyph-name="eccentric" d="M179.821 819.36c-3.101 3.101-0.297 8.341 4.003 7.481l97.125-19.423c15.003-3.006 29.598 6.729 32.6 21.735s-6.731 29.598-21.735 32.6l-201.205 40.24c-0.011 0.002-0.022 0.002-0.033 0.004-1.033 0.204-2.072 0.339-3.119 0.426-0.306 0.024-0.607 0.029-0.913 0.044-0.734 0.035-1.467 0.047-2.203 0.024-0.359-0.011-0.716-0.027-1.073-0.051-0.743-0.051-1.481-0.137-2.216-0.248-0.284-0.042-0.567-0.071-0.849-0.122-1.020-0.184-2.030-0.419-3.025-0.718-0.073-0.022-0.142-0.053-0.215-0.075-0.915-0.284-1.817-0.623-2.706-1.002-0.257-0.111-0.505-0.235-0.758-0.352-0.7-0.326-1.387-0.678-2.064-1.066-0.277-0.157-0.55-0.317-0.82-0.485-0.654-0.406-1.29-0.844-1.915-1.31-0.239-0.177-0.483-0.341-0.718-0.528-0.827-0.656-1.634-1.352-2.398-2.117-0.767-0.767-1.463-1.574-2.121-2.403-0.18-0.228-0.339-0.465-0.512-0.696-0.474-0.636-0.92-1.283-1.332-1.95-0.16-0.257-0.31-0.516-0.461-0.78-0.399-0.698-0.765-1.407-1.099-2.13-0.106-0.231-0.222-0.459-0.321-0.694-0.401-0.933-0.76-1.88-1.053-2.844-0.009-0.027-0.020-0.053-0.029-0.080-0.304-1.008-0.541-2.032-0.727-3.063-0.047-0.262-0.073-0.523-0.113-0.787-0.115-0.758-0.204-1.518-0.255-2.281-0.024-0.346-0.040-0.689-0.049-1.037-0.022-0.745-0.011-1.485 0.024-2.23 0.016-0.301 0.018-0.601 0.042-0.9 0.086-1.044 0.219-2.083 0.423-3.114 0.002-0.013 0.002-0.024 0.004-0.038l40.242-201.207c2.633-13.17 14.201-22.278 27.138-22.278 2.604 0 5.266 0.366 7.922 1.153 13.893 4.112 21.941 18.671 19.099 32.879l-19.248 96.236c-0.86 4.3 4.38 7.106 7.481 4.003l237.949-237.947c5.41-5.408 12.501-8.114 19.591-8.114s14.181 2.706 19.591 8.114c10.818 10.821 10.818 28.362 0 39.182l-237.949 237.949zM966.465 22.586c-0.016 0.286-0.018 0.57-0.040 0.856-0.086 1.055-0.222 2.106-0.428 3.145-0.002 0.007-0.002 0.013-0.002 0.020l-40.242 201.207c-3.001 15.005-17.594 24.744-32.6 21.735-15.005-3.001-24.736-17.594-21.735-32.6l19.425-97.123c0.86-4.3-4.38-7.106-7.481-4.003l-237.304 237.3c-10.787 10.787-28.479 11.601-39.462 1.011-11.189-10.787-11.311-28.601-0.368-39.544l237.949-237.949c3.101-3.101 0.297-8.341-4.003-7.481l-97.123 19.425c-14.979 3.001-29.598-6.727-32.6-21.735-3.001-15.005 6.729-29.598 21.735-32.6l201.207-40.242c0.009-0.002 0.020-0.002 0.029-0.004 0.734-0.144 1.472-0.246 2.212-0.33 0.166-0.020 0.332-0.055 0.499-0.071 0.895-0.086 1.793-0.133 2.691-0.133 0.9 0 1.8 0.047 2.695 0.133 0.166 0.016 0.328 0.053 0.494 0.071 0.731 0.084 1.461 0.182 2.183 0.324 0.109 0.022 0.213 0.055 0.321 0.078 0.776 0.162 1.547 0.348 2.312 0.576 0.029 0.009 0.055 0.020 0.084 0.029 2.531 0.771 4.974 1.906 7.241 3.418 0.084 0.055 0.164 0.124 0.248 0.182 0.663 0.452 1.317 0.922 1.946 1.436 0.714 0.583 1.403 1.206 2.064 1.866 0.767 0.767 1.465 1.574 2.123 2.405 0.177 0.224 0.337 0.459 0.508 0.689 0.474 0.638 0.924 1.288 1.337 1.957 0.157 0.257 0.308 0.514 0.459 0.776 0.401 0.698 0.767 1.412 1.104 2.137 0.106 0.228 0.219 0.454 0.319 0.685 0.403 0.942 0.767 1.895 1.062 2.866 0.007 0.020 0.013 0.038 0.020 0.058 0.306 1.013 0.543 2.039 0.729 3.074 0.047 0.25 0.071 0.505 0.109 0.758 0.117 0.769 0.206 1.538 0.259 2.312 0.022 0.337 0.038 0.674 0.049 1.013 0.022 0.758 0.011 1.516-0.027 2.274zM378.59 353.77l-237.949-237.949c-3.101-3.101-8.341-0.297-7.481 4.003l19.425 97.123c3.001 15.005-6.731 29.598-21.735 32.6-15.014 3.012-29.601-6.729-32.602-21.735l-40.242-201.207c-0.002-0.013-0.002-0.024-0.004-0.038-0.204-1.031-0.337-2.070-0.423-3.114-0.024-0.301-0.029-0.601-0.042-0.9-0.038-0.743-0.049-1.485-0.024-2.23 0.011-0.348 0.027-0.692 0.049-1.037 0.051-0.762 0.14-1.523 0.255-2.281 0.040-0.262 0.066-0.525 0.113-0.787 0.186-1.031 0.423-2.055 0.727-3.063 0.009-0.027 0.020-0.053 0.029-0.080 0.295-0.964 0.652-1.911 1.053-2.844 0.1-0.235 0.215-0.461 0.321-0.694 0.335-0.723 0.7-1.432 1.099-2.128 0.151-0.262 0.301-0.521 0.461-0.78 0.412-0.665 0.858-1.312 1.332-1.95 0.173-0.233 0.332-0.47 0.512-0.696 0.658-0.829 1.354-1.636 2.121-2.403 0.661-0.661 1.35-1.283 2.066-1.868 0.601-0.492 1.226-0.938 1.857-1.372 0.115-0.078 0.222-0.171 0.337-0.246 2.263-1.507 4.699-2.64 7.223-3.411 0.033-0.011 0.066-0.024 0.102-0.035 0.76-0.228 1.529-0.412 2.303-0.574 0.111-0.022 0.217-0.058 0.328-0.080 0.723-0.142 1.45-0.239 2.179-0.324 0.168-0.020 0.332-0.055 0.501-0.073 0.895-0.086 1.795-0.133 2.695-0.133 0.902 0 1.802 0.047 2.7 0.133 0.122 0.011 0.242 0.038 0.361 0.053 0.785 0.086 1.565 0.195 2.341 0.348 0.011 0.002 0.022 0.002 0.033 0.004l201.207 40.242c15.005 3.001 24.736 17.594 21.735 32.6s-17.603 24.756-32.602 21.735l-97.123-19.425c-4.3-0.86-7.106 4.38-4.003 7.481l237.949 237.949c10.818 10.821 10.818 28.362 0 39.182-10.823 10.823-28.364 10.823-39.185 0.004zM625.819 534.116c7.088 0 14.181 2.706 19.591 8.114l237.949 237.947c3.101 3.101 8.341 0.297 7.481-4.003l-19.425-97.123c-3.001-15.005 6.729-29.598 21.735-32.6 1.833-0.368 3.659-0.545 5.464-0.543 12.935 0 24.503 9.105 27.136 22.278l40.242 201.207c0.002 0.007 0.002 0.013 0.002 0.020 0.206 1.042 0.341 2.090 0.428 3.145 0.024 0.286 0.027 0.57 0.040 0.856 0.038 0.758 0.049 1.514 0.027 2.274-0.011 0.339-0.024 0.676-0.049 1.013-0.053 0.774-0.142 1.545-0.259 2.312-0.038 0.253-0.064 0.508-0.109 0.758-0.186 1.035-0.426 2.061-0.729 3.074-0.007 0.020-0.013 0.038-0.020 0.058-0.295 0.971-0.658 1.926-1.062 2.868-0.1 0.231-0.213 0.454-0.317 0.685-0.335 0.725-0.703 1.436-1.104 2.137-0.149 0.262-0.299 0.519-0.459 0.776-0.412 0.669-0.862 1.319-1.337 1.957-0.171 0.231-0.328 0.463-0.508 0.689-0.658 0.829-1.356 1.638-2.123 2.405-0.765 0.765-1.571 1.463-2.4 2.119-0.228 0.182-0.47 0.344-0.703 0.516-0.632 0.47-1.274 0.913-1.935 1.323-0.264 0.162-0.53 0.317-0.798 0.472-0.689 0.395-1.39 0.756-2.103 1.086-0.239 0.111-0.474 0.228-0.718 0.332-0.92 0.395-1.851 0.747-2.799 1.037-0.042 0.013-0.080 0.031-0.122 0.042-1.006 0.304-2.028 0.541-3.056 0.727-0.262 0.047-0.525 0.073-0.787 0.113-0.758 0.115-1.518 0.204-2.283 0.255-0.344 0.024-0.687 0.038-1.033 0.049-0.749 0.022-1.496 0.011-2.243-0.027-0.295-0.016-0.59-0.018-0.884-0.042-1.048-0.086-2.090-0.219-3.125-0.426-0.011-0.002-0.022-0.002-0.033-0.004l-201.207-40.24c-15.005-3.001-24.736-17.594-21.735-32.6 3.001-15.008 17.603-24.749 32.6-21.735l97.123 19.423c4.3 0.86 7.106-4.38 4.003-7.481l-237.362-237.369c-10.79-10.79-11.362-29.002-0.563-39.783 5.408-5.397 12.49-8.094 19.571-8.094z" />
<glyph unicode="&#xe60b;" glyph-name="cicle" d="M617.824 808.876l-134.76 89.839c-13.622 9.083-32.165 5.036-40.698-9.161-7.993-13.301-3.5-30.631 9.411-39.238l43.513-29.009c3.566-2.376 2.015-7.888-2.265-8.108-192.869-9.91-346.739-169.911-346.739-365.2 0-125.928 63.554-241.44 170.006-308.993 4.79-3.039 10.131-4.488 15.413-4.488 9.535 0 18.869 4.732 24.357 13.378 8.527 13.436 4.546 31.243-8.89 39.768-89.704 56.925-143.258 154.247-143.258 260.335 0 162.672 126.732 296.282 286.645 307.326 4.546 0.315 6.578-5.599 2.788-8.126l-41.576-27.717c-13.124-8.751-17.486-26.478-9.054-39.81 5.508-8.711 14.859-13.432 24.388-13.429 5.492 0 11.045 1.567 15.956 4.843l134.76 89.839c8.017 5.344 12.831 14.34 12.831 23.973s-4.81 18.629-12.827 23.975zM406.176 87.124l134.76-89.839c13.622-9.083 32.165-5.036 40.698 9.161 7.993 13.301 3.5 30.631-9.411 39.238l-43.513 29.009c-3.566 2.376-2.015 7.888 2.265 8.108 192.869 9.91 346.739 169.911 346.739 365.2 0 125.928-63.554 241.44-170.006 308.993-4.79 3.039-10.131 4.488-15.413 4.488-9.535 0-18.869-4.732-24.357-13.378-8.527-13.436-4.546-31.243 8.89-39.768 89.704-56.925 143.258-154.247 143.258-260.335 0-162.672-126.732-296.282-286.645-307.326-4.546-0.315-6.578 5.599-2.788 8.126l41.576 27.717c13.124 8.751 17.486 26.478 9.054 39.81-5.508 8.711-14.859 13.432-24.388 13.429-5.492 0-11.045-1.567-15.956-4.843l-134.76-89.839c-8.017-5.344-12.831-14.34-12.831-23.973s4.81-18.629 12.827-23.975z" />
<glyph unicode="&#xe60c;" glyph-name="contract" d="M909.653 903.281h-795.307c-31.826 0-57.628-25.802-57.628-57.628v-795.307c0-31.826 25.802-57.628 57.628-57.628h795.307c31.826 0 57.628 25.802 57.628 57.628v795.307c0 31.826-25.802 57.628-57.628 57.628zM911.87 76.944c0-15.914-12.9-28.814-28.814-28.814h-742.112c-15.914 0-28.814 12.9-28.814 28.814v742.112c0 15.914 12.9 28.814 28.814 28.814h742.112c15.914 0 28.814-12.9 28.814-28.814v-742.112zM596.125 334.795c0.016-0.286 0.018-0.57 0.040-0.856 0.086-1.055 0.222-2.106 0.428-3.145 0.002-0.007 0.002-0.013 0.002-0.020l40.242-201.207c3.001-15.005 17.59-24.738 32.6-21.735 15.005 3.001 24.736 17.594 21.735 32.6l-19.425 97.123c-0.86 4.3 4.38 7.106 7.481 4.003l123.481-123.481c10.787-10.787 28.479-11.601 39.462-1.011 11.189 10.787 11.311 28.601 0.368 39.544l-124.13 124.13c-3.101 3.101-0.297 8.341 4.003 7.481l97.123-19.425c14.985-3.001 29.598 6.727 32.6 21.735 3.001 15.005-6.729 29.598-21.735 32.6l-201.207 40.242c-0.009 0.002-0.020 0.002-0.029 0.004-0.734 0.144-1.472 0.246-2.212 0.33-0.166 0.020-0.332 0.055-0.499 0.071-0.895 0.086-1.793 0.133-2.691 0.133-0.9 0-1.8-0.047-2.695-0.133-0.166-0.016-0.328-0.053-0.494-0.071-0.731-0.084-1.461-0.182-2.183-0.324-0.109-0.022-0.213-0.055-0.321-0.078-0.776-0.162-1.547-0.348-2.312-0.576-0.029-0.009-0.055-0.020-0.084-0.029-2.531-0.771-4.974-1.906-7.241-3.418-0.084-0.055-0.164-0.124-0.248-0.182-0.663-0.452-1.317-0.922-1.946-1.436-0.714-0.583-1.403-1.206-2.064-1.866-0.767-0.767-1.465-1.574-2.123-2.405-0.177-0.224-0.337-0.459-0.508-0.689-0.474-0.638-0.924-1.288-1.337-1.957-0.157-0.257-0.308-0.514-0.459-0.776-0.401-0.698-0.767-1.412-1.104-2.137-0.106-0.228-0.219-0.454-0.319-0.685-0.403-0.942-0.767-1.895-1.062-2.866-0.007-0.020-0.013-0.038-0.020-0.058-0.306-1.013-0.543-2.039-0.729-3.074-0.047-0.25-0.071-0.505-0.109-0.758-0.117-0.769-0.206-1.538-0.259-2.312-0.022-0.337-0.038-0.674-0.049-1.013-0.018-0.758-0.007-1.516 0.031-2.274zM204.463 268.8l97.123 19.425c4.3 0.86 7.106-4.38 4.003-7.481l-124.128-124.13c-10.818-10.821-10.818-28.362 0-39.182 10.821-10.818 28.362-10.818 39.182 0l124.128 124.128c3.101 3.101 8.341 0.297 7.481-4.003l-19.425-97.123c-3.001-15.005 6.731-29.598 21.735-32.6 15.012-3.014 29.601 6.729 32.602 21.735l40.242 201.207c0.002 0.013 0.002 0.024 0.004 0.038 0.204 1.031 0.337 2.070 0.423 3.114 0.024 0.301 0.029 0.601 0.042 0.9 0.038 0.743 0.049 1.485 0.024 2.23-0.011 0.348-0.027 0.692-0.049 1.037-0.051 0.762-0.14 1.523-0.255 2.281-0.040 0.262-0.066 0.525-0.113 0.787-0.186 1.031-0.423 2.055-0.727 3.063-0.009 0.027-0.020 0.053-0.029 0.080-0.295 0.964-0.652 1.911-1.053 2.844-0.1 0.235-0.215 0.461-0.321 0.694-0.335 0.723-0.7 1.432-1.099 2.128-0.151 0.262-0.301 0.521-0.461 0.78-0.412 0.665-0.858 1.312-1.332 1.95-0.173 0.233-0.332 0.47-0.512 0.696-0.658 0.829-1.354 1.636-2.121 2.403-0.661 0.661-1.35 1.283-2.066 1.868-0.601 0.492-1.226 0.938-1.857 1.372-0.115 0.078-0.222 0.171-0.337 0.246-2.263 1.507-4.699 2.64-7.223 3.411-0.033 0.011-0.066 0.024-0.102 0.035-0.76 0.228-1.529 0.412-2.303 0.574-0.111 0.022-0.217 0.058-0.328 0.080-0.723 0.142-1.45 0.239-2.179 0.324-0.168 0.020-0.332 0.055-0.501 0.073-0.895 0.086-1.795 0.133-2.695 0.133-0.902 0-1.802-0.047-2.7-0.133-0.122-0.011-0.242-0.038-0.361-0.053-0.785-0.086-1.565-0.195-2.341-0.348-0.011-0.002-0.022-0.002-0.033-0.004l-201.207-40.242c-15.005-3.001-24.736-17.594-21.735-32.6s17.605-24.749 32.604-21.737zM596.148 557.889c0.053-0.774 0.142-1.545 0.259-2.312 0.038-0.253 0.064-0.508 0.109-0.758 0.186-1.035 0.426-2.061 0.729-3.074 0.007-0.020 0.013-0.038 0.020-0.058 0.295-0.971 0.658-1.926 1.062-2.868 0.1-0.231 0.213-0.454 0.317-0.685 0.335-0.725 0.703-1.436 1.104-2.137 0.149-0.262 0.299-0.519 0.459-0.776 0.412-0.669 0.862-1.319 1.337-1.957 0.171-0.231 0.328-0.463 0.508-0.689 0.658-0.829 1.356-1.638 2.123-2.405s1.574-1.463 2.403-2.121c0.226-0.177 0.461-0.337 0.692-0.508 0.636-0.474 1.286-0.922 1.953-1.334 0.257-0.16 0.516-0.31 0.78-0.461 0.698-0.401 1.407-0.765 2.13-1.099 0.231-0.106 0.457-0.219 0.689-0.319 0.94-0.403 1.895-0.767 2.866-1.062 0.018-0.004 0.035-0.013 0.055-0.020 1.015-0.306 2.046-0.545 3.085-0.734 0.239-0.044 0.479-0.066 0.72-0.104 0.785-0.12 1.569-0.211 2.361-0.264 0.326-0.022 0.652-0.035 0.977-0.047 0.771-0.024 1.543-0.013 2.314 0.027 0.277 0.013 0.552 0.018 0.827 0.040 1.055 0.086 2.106 0.222 3.147 0.428 0.009 0.002 0.020 0.002 0.029 0.004l201.207 40.24c15.005 3.001 24.736 17.594 21.735 32.6-3.001 15.008-17.601 24.751-32.6 21.735l-97.123-19.423c-4.3-0.86-7.106 4.38-4.003 7.481l123.547 123.547c10.79 10.79 11.362 29.002 0.563 39.783-5.408 5.399-12.49 8.097-19.571 8.097-7.088 0-14.181-2.706-19.591-8.114l-124.13-124.128c-3.101-3.101-8.341-0.297-7.481 4.003l19.425 97.123c3.001 15.005-6.729 29.598-21.735 32.6-1.833 0.368-3.659 0.545-5.464 0.543-12.935 0-24.503-9.105-27.136-22.278l-40.242-201.205c-0.002-0.007-0.002-0.013-0.002-0.020-0.206-1.042-0.341-2.090-0.428-3.145-0.024-0.286-0.027-0.57-0.040-0.856-0.038-0.758-0.049-1.514-0.027-2.274 0.002-0.339 0.018-0.676 0.040-1.015zM400.834 532.148c0.774 0.053 1.545 0.142 2.312 0.259 0.253 0.038 0.508 0.064 0.758 0.109 1.035 0.186 2.061 0.426 3.074 0.729 0.020 0.007 0.038 0.013 0.058 0.020 0.971 0.295 1.926 0.658 2.868 1.062 0.231 0.1 0.454 0.213 0.685 0.317 0.725 0.335 1.436 0.703 2.137 1.104 0.262 0.149 0.519 0.299 0.776 0.459 0.669 0.412 1.319 0.862 1.957 1.337 0.231 0.171 0.463 0.328 0.689 0.508 0.829 0.658 1.638 1.356 2.405 2.123s1.463 1.574 2.121 2.403c0.177 0.226 0.337 0.461 0.508 0.692 0.474 0.636 0.922 1.286 1.334 1.953 0.16 0.257 0.31 0.516 0.461 0.78 0.401 0.698 0.765 1.407 1.099 2.13 0.106 0.231 0.219 0.457 0.319 0.689 0.403 0.94 0.767 1.895 1.062 2.866 0.004 0.018 0.013 0.035 0.020 0.055 0.306 1.015 0.545 2.046 0.734 3.085 0.044 0.239 0.066 0.479 0.104 0.72 0.12 0.785 0.211 1.569 0.264 2.361 0.022 0.326 0.035 0.652 0.047 0.977 0.024 0.771 0.013 1.543-0.027 2.314-0.013 0.277-0.018 0.552-0.040 0.827-0.086 1.055-0.222 2.106-0.428 3.147-0.002 0.009-0.002 0.020-0.004 0.029l-40.242 201.203c-3.001 15.005-17.594 24.736-32.6 21.735-15.008-3.001-24.751-17.601-21.735-32.6l19.423-97.123c0.86-4.3-4.38-7.106-7.481-4.003l-123.545 123.547c-10.79 10.79-29.002 11.362-39.783 0.563-5.399-5.408-8.097-12.49-8.097-19.571 0-7.088 2.706-14.181 8.114-19.591l124.128-124.13c3.101-3.101 0.297-8.341-4.003-7.481l-97.123 19.425c-15.005 3.001-29.598-6.729-32.6-21.735-0.368-1.833-0.545-3.659-0.543-5.464 0-12.935 9.105-24.503 22.278-27.136l201.205-40.242c0.007-0.002 0.013-0.002 0.020-0.002 1.042-0.206 2.090-0.341 3.145-0.428 0.286-0.024 0.57-0.027 0.856-0.040 0.758-0.038 1.514-0.049 2.274-0.027 0.341 0.007 0.678 0.022 1.015 0.044z" />
<glyph unicode="&#xe60d;" glyph-name="expand" d="M909.653 903.281h-795.307c-31.826 0-57.628-25.802-57.628-57.628v-795.307c0-31.826 25.802-57.628 57.628-57.628h795.307c31.826 0 57.628 25.802 57.628 57.628v795.307c0 31.826-25.802 57.628-57.628 57.628zM911.87 76.944c0-15.914-12.9-28.814-28.814-28.814h-742.112c-15.914 0-28.814 12.9-28.814 28.814v742.112c0 15.914 12.9 28.814 28.814 28.814h742.112c15.914 0 28.814-12.9 28.814-28.814v-742.112zM852.644 136.405c-0.016 0.286-0.018 0.57-0.040 0.856-0.086 1.055-0.222 2.106-0.428 3.145-0.002 0.007-0.002 0.013-0.002 0.020l-40.242 201.207c-3.001 15.005-17.59 24.738-32.6 21.735-15.005-3.001-24.736-17.594-21.735-32.6l19.425-97.123c0.86-4.3-4.38-7.106-7.481-4.003l-123.481 123.481c-10.787 10.787-28.479 11.601-39.462 1.011-11.189-10.787-11.311-28.601-0.368-39.544l124.13-124.13c3.101-3.101 0.297-8.341-4.003-7.481l-97.123 19.425c-14.985 3.001-29.598-6.727-32.6-21.735-3.001-15.005 6.729-29.598 21.735-32.6l201.207-40.242c0.009-0.002 0.020-0.002 0.029-0.004 0.734-0.144 1.472-0.246 2.212-0.33 0.166-0.020 0.332-0.055 0.499-0.071 0.895-0.086 1.793-0.133 2.691-0.133 0.9 0 1.8 0.047 2.695 0.133 0.166 0.016 0.328 0.053 0.494 0.071 0.731 0.084 1.461 0.182 2.183 0.324 0.109 0.022 0.213 0.055 0.321 0.078 0.776 0.162 1.547 0.348 2.312 0.576 0.029 0.009 0.055 0.020 0.084 0.029 2.531 0.771 4.974 1.906 7.241 3.418 0.084 0.055 0.164 0.124 0.248 0.182 0.663 0.452 1.317 0.922 1.946 1.436 0.714 0.583 1.403 1.206 2.064 1.866 0.767 0.767 1.465 1.574 2.123 2.405 0.177 0.224 0.337 0.459 0.508 0.689 0.474 0.638 0.924 1.288 1.337 1.957 0.157 0.257 0.308 0.514 0.459 0.776 0.401 0.698 0.767 1.412 1.104 2.137 0.106 0.228 0.219 0.454 0.319 0.685 0.403 0.942 0.767 1.895 1.062 2.866 0.007 0.020 0.013 0.038 0.020 0.058 0.306 1.013 0.543 2.039 0.729 3.074 0.047 0.25 0.071 0.505 0.109 0.758 0.117 0.769 0.206 1.538 0.259 2.312 0.022 0.337 0.038 0.674 0.049 1.013 0.020 0.76 0.009 1.516-0.031 2.274zM394.77 202.404l-97.123-19.425c-4.3-0.86-7.106 4.38-4.003 7.481l124.128 124.13c10.818 10.821 10.818 28.362 0 39.182-10.821 10.818-28.362 10.818-39.182 0l-124.128-124.128c-3.101-3.101-8.341-0.297-7.481 4.003l19.425 97.123c3.001 15.005-6.731 29.598-21.735 32.6-15.012 3.014-29.601-6.729-32.602-21.735l-40.242-201.207c-0.002-0.013-0.002-0.024-0.004-0.038-0.204-1.031-0.337-2.070-0.423-3.114-0.024-0.301-0.029-0.601-0.042-0.9-0.038-0.743-0.049-1.485-0.024-2.23 0.011-0.348 0.027-0.692 0.049-1.037 0.051-0.762 0.14-1.523 0.255-2.281 0.040-0.262 0.066-0.525 0.113-0.787 0.186-1.031 0.423-2.055 0.727-3.063 0.009-0.027 0.020-0.053 0.029-0.080 0.295-0.964 0.652-1.911 1.053-2.844 0.1-0.235 0.215-0.461 0.321-0.694 0.335-0.723 0.7-1.432 1.099-2.128 0.151-0.262 0.301-0.521 0.461-0.78 0.412-0.665 0.858-1.312 1.332-1.95 0.173-0.233 0.332-0.47 0.512-0.696 0.658-0.829 1.354-1.636 2.121-2.403 0.661-0.661 1.35-1.283 2.066-1.868 0.601-0.492 1.226-0.938 1.857-1.372 0.115-0.078 0.222-0.171 0.337-0.246 2.263-1.507 4.699-2.64 7.223-3.411 0.033-0.011 0.066-0.024 0.102-0.035 0.76-0.228 1.529-0.412 2.303-0.574 0.111-0.022 0.217-0.058 0.328-0.080 0.723-0.142 1.45-0.239 2.179-0.324 0.168-0.020 0.332-0.055 0.501-0.073 0.895-0.086 1.795-0.133 2.695-0.133 0.902 0 1.802 0.047 2.7 0.133 0.122 0.011 0.242 0.038 0.361 0.053 0.785 0.086 1.565 0.195 2.341 0.348 0.011 0.002 0.022 0.002 0.033 0.004l201.207 40.242c15.005 3.001 24.736 17.594 21.735 32.6s-17.605 24.749-32.604 21.737zM852.622 762.88c-0.053 0.774-0.142 1.545-0.259 2.312-0.038 0.253-0.064 0.508-0.109 0.758-0.186 1.035-0.426 2.061-0.729 3.074-0.007 0.020-0.013 0.038-0.020 0.058-0.295 0.971-0.658 1.926-1.062 2.868-0.1 0.231-0.213 0.454-0.317 0.685-0.335 0.725-0.703 1.436-1.104 2.137-0.149 0.262-0.299 0.519-0.459 0.776-0.412 0.669-0.862 1.319-1.337 1.957-0.171 0.231-0.328 0.463-0.508 0.689-0.658 0.829-1.356 1.638-2.123 2.405s-1.574 1.463-2.403 2.121c-0.226 0.177-0.461 0.337-0.692 0.508-0.636 0.474-1.286 0.922-1.953 1.334-0.257 0.16-0.516 0.31-0.78 0.461-0.698 0.401-1.407 0.765-2.13 1.099-0.231 0.106-0.457 0.219-0.689 0.319-0.94 0.403-1.895 0.767-2.866 1.062-0.018 0.004-0.035 0.013-0.055 0.020-1.015 0.306-2.046 0.545-3.085 0.734-0.239 0.044-0.479 0.066-0.72 0.104-0.785 0.12-1.569 0.211-2.361 0.264-0.326 0.022-0.652 0.035-0.977 0.047-0.771 0.024-1.543 0.013-2.314-0.027-0.277-0.013-0.552-0.018-0.827-0.040-1.055-0.086-2.106-0.222-3.147-0.428-0.009-0.002-0.020-0.002-0.029-0.004l-201.203-40.242c-15.005-3.001-24.736-17.594-21.735-32.6 3.001-15.008 17.601-24.751 32.6-21.735l97.123 19.423c4.3 0.86 7.106-4.38 4.003-7.481l-123.547-123.547c-10.79-10.79-11.362-29.002-0.563-39.783 5.408-5.399 12.49-8.097 19.571-8.097 7.088 0 14.181 2.706 19.591 8.114l124.13 124.128c3.101 3.101 8.341 0.297 7.481-4.003l-19.425-97.123c-3.001-15.005 6.729-29.598 21.735-32.6 1.833-0.368 3.659-0.545 5.464-0.543 12.935 0 24.503 9.105 27.136 22.278l40.242 201.205c0.002 0.007 0.002 0.013 0.002 0.020 0.206 1.042 0.341 2.090 0.428 3.145 0.024 0.286 0.027 0.57 0.040 0.856 0.038 0.758 0.049 1.514 0.027 2.274-0.007 0.344-0.020 0.68-0.044 1.017zM195.843 788.622c-0.774-0.053-1.545-0.142-2.312-0.259-0.253-0.038-0.508-0.064-0.758-0.109-1.035-0.186-2.061-0.426-3.074-0.729-0.020-0.007-0.038-0.013-0.058-0.020-0.971-0.295-1.926-0.658-2.868-1.062-0.231-0.1-0.454-0.213-0.685-0.317-0.725-0.335-1.436-0.703-2.137-1.104-0.262-0.149-0.519-0.299-0.776-0.459-0.669-0.412-1.319-0.862-1.957-1.337-0.231-0.171-0.463-0.328-0.689-0.508-0.829-0.658-1.638-1.356-2.405-2.123s-1.463-1.574-2.121-2.403c-0.177-0.226-0.337-0.461-0.508-0.692-0.474-0.636-0.922-1.286-1.334-1.953-0.16-0.257-0.31-0.516-0.461-0.78-0.401-0.698-0.765-1.407-1.099-2.13-0.106-0.231-0.219-0.457-0.319-0.689-0.403-0.94-0.767-1.895-1.062-2.866-0.004-0.018-0.013-0.035-0.020-0.055-0.306-1.015-0.545-2.046-0.734-3.085-0.044-0.239-0.066-0.479-0.104-0.72-0.12-0.785-0.211-1.569-0.264-2.361-0.022-0.326-0.035-0.652-0.047-0.977-0.024-0.771-0.013-1.543 0.027-2.314 0.013-0.277 0.018-0.552 0.040-0.827 0.086-1.055 0.222-2.106 0.428-3.147 0.002-0.009 0.002-0.020 0.004-0.029l40.24-201.207c3.001-15.005 17.594-24.736 32.6-21.735 15.008 3.001 24.751 17.601 21.735 32.6l-19.423 97.123c-0.86 4.3 4.38 7.106 7.481 4.003l123.547-123.547c10.79-10.79 29.002-11.362 39.783-0.563 5.399 5.408 8.097 12.49 8.097 19.571 0 7.088-2.706 14.181-8.114 19.591l-124.128 124.13c-3.101 3.101-0.297 8.341 4.003 7.481l97.123-19.425c15.005-3.001 29.598 6.729 32.6 21.735 0.368 1.833 0.545 3.659 0.543 5.464 0 12.935-9.105 24.503-22.278 27.136l-201.205 40.249c-0.007 0.002-0.013 0.002-0.020 0.002-1.042 0.206-2.090 0.341-3.145 0.428-0.286 0.024-0.57 0.027-0.856 0.040-0.758 0.038-1.514 0.049-2.274 0.027-0.339-0.009-0.676-0.024-1.015-0.047z" />
<glyph unicode="&#xe60e;" glyph-name="meeting" d="M909.653 903.281h-795.307c-31.826 0-57.628-25.802-57.628-57.628v-795.307c0-31.826 25.802-57.628 57.628-57.628h795.307c31.826 0 57.628 25.802 57.628 57.628v795.307c0 31.826-25.802 57.628-57.628 57.628zM911.87 76.944c0-15.914-12.9-28.814-28.814-28.814h-742.112c-15.914 0-28.814 12.9-28.814 28.814v742.112c0 15.914 12.9 28.814 28.814 28.814h742.112c15.914 0 28.814-12.9 28.814-28.814v-742.112zM596.125 334.795c0.016-0.286 0.018-0.57 0.040-0.856 0.086-1.055 0.222-2.106 0.428-3.145 0.002-0.007 0.002-0.013 0.002-0.020l40.242-201.207c3.001-15.005 17.59-24.738 32.6-21.735 15.005 3.001 24.736 17.594 21.735 32.6l-19.425 97.123c-0.86 4.3 4.38 7.106 7.481 4.003l123.481-123.481c10.787-10.787 28.479-11.601 39.462-1.011 11.189 10.787 11.311 28.601 0.368 39.544l-124.13 124.13c-3.101 3.101-0.297 8.341 4.003 7.481l97.123-19.425c14.985-3.001 29.598 6.727 32.6 21.735 3.001 15.005-6.729 29.598-21.735 32.6l-201.207 40.242c-0.009 0.002-0.020 0.002-0.029 0.004-0.734 0.144-1.472 0.246-2.212 0.33-0.166 0.020-0.332 0.055-0.499 0.071-0.895 0.086-1.793 0.133-2.691 0.133-0.9 0-1.8-0.047-2.695-0.133-0.166-0.016-0.328-0.053-0.494-0.071-0.731-0.084-1.461-0.182-2.183-0.324-0.109-0.022-0.213-0.055-0.321-0.078-0.776-0.162-1.547-0.348-2.312-0.576-0.029-0.009-0.055-0.020-0.084-0.029-2.531-0.771-4.974-1.906-7.241-3.418-0.084-0.055-0.164-0.124-0.248-0.182-0.663-0.452-1.317-0.922-1.946-1.436-0.714-0.583-1.403-1.206-2.064-1.866-0.767-0.767-1.465-1.574-2.123-2.405-0.177-0.224-0.337-0.459-0.508-0.689-0.474-0.638-0.924-1.288-1.337-1.957-0.157-0.257-0.308-0.514-0.459-0.776-0.401-0.698-0.767-1.412-1.104-2.137-0.106-0.228-0.219-0.454-0.319-0.685-0.403-0.942-0.767-1.895-1.062-2.866-0.007-0.020-0.013-0.038-0.020-0.058-0.306-1.013-0.543-2.039-0.729-3.074-0.047-0.25-0.071-0.505-0.109-0.758-0.117-0.769-0.206-1.538-0.259-2.312-0.022-0.337-0.038-0.674-0.049-1.013-0.018-0.758-0.007-1.516 0.031-2.274zM204.463 268.8l97.123 19.425c4.3 0.86 7.106-4.38 4.003-7.481l-124.128-124.13c-10.818-10.821-10.818-28.362 0-39.182 10.821-10.818 28.362-10.818 39.182 0l124.128 124.128c3.101 3.101 8.341 0.297 7.481-4.003l-19.425-97.123c-3.001-15.005 6.731-29.598 21.735-32.6 15.012-3.014 29.601 6.729 32.602 21.735l40.242 201.207c0.002 0.013 0.002 0.024 0.004 0.038 0.204 1.031 0.337 2.070 0.423 3.114 0.024 0.301 0.029 0.601 0.042 0.9 0.038 0.743 0.049 1.485 0.024 2.23-0.011 0.348-0.027 0.692-0.049 1.037-0.051 0.762-0.14 1.523-0.255 2.281-0.040 0.262-0.066 0.525-0.113 0.787-0.186 1.031-0.423 2.055-0.727 3.063-0.009 0.027-0.020 0.053-0.029 0.080-0.295 0.964-0.652 1.911-1.053 2.844-0.1 0.235-0.215 0.461-0.321 0.694-0.335 0.723-0.7 1.432-1.099 2.128-0.151 0.262-0.301 0.521-0.461 0.78-0.412 0.665-0.858 1.312-1.332 1.95-0.173 0.233-0.332 0.47-0.512 0.696-0.658 0.829-1.354 1.636-2.121 2.403-0.661 0.661-1.35 1.283-2.066 1.868-0.601 0.492-1.226 0.938-1.857 1.372-0.115 0.078-0.222 0.171-0.337 0.246-2.263 1.507-4.699 2.64-7.223 3.411-0.033 0.011-0.066 0.024-0.102 0.035-0.76 0.228-1.529 0.412-2.303 0.574-0.111 0.022-0.217 0.058-0.328 0.080-0.723 0.142-1.45 0.239-2.179 0.324-0.168 0.020-0.332 0.055-0.501 0.073-0.895 0.086-1.795 0.133-2.695 0.133-0.902 0-1.802-0.047-2.7-0.133-0.122-0.011-0.242-0.038-0.361-0.053-0.785-0.086-1.565-0.195-2.341-0.348-0.011-0.002-0.022-0.002-0.033-0.004l-201.207-40.242c-15.005-3.001-24.736-17.594-21.735-32.6s17.605-24.749 32.604-21.737zM596.148 557.889c0.053-0.774 0.142-1.545 0.259-2.312 0.038-0.253 0.064-0.508 0.109-0.758 0.186-1.035 0.426-2.061 0.729-3.074 0.007-0.020 0.013-0.038 0.020-0.058 0.295-0.971 0.658-1.926 1.062-2.868 0.1-0.231 0.213-0.454 0.317-0.685 0.335-0.725 0.703-1.436 1.104-2.137 0.149-0.262 0.299-0.519 0.459-0.776 0.412-0.669 0.862-1.319 1.337-1.957 0.171-0.231 0.328-0.463 0.508-0.689 0.658-0.829 1.356-1.638 2.123-2.405s1.574-1.463 2.403-2.121c0.226-0.177 0.461-0.337 0.692-0.508 0.636-0.474 1.286-0.922 1.953-1.334 0.257-0.16 0.516-0.31 0.78-0.461 0.698-0.401 1.407-0.765 2.13-1.099 0.231-0.106 0.457-0.219 0.689-0.319 0.94-0.403 1.895-0.767 2.866-1.062 0.018-0.004 0.035-0.013 0.055-0.020 1.015-0.306 2.046-0.545 3.085-0.734 0.239-0.044 0.479-0.066 0.72-0.104 0.785-0.12 1.569-0.211 2.361-0.264 0.326-0.022 0.652-0.035 0.977-0.047 0.771-0.024 1.543-0.013 2.314 0.027 0.277 0.013 0.552 0.018 0.827 0.040 1.055 0.086 2.106 0.222 3.147 0.428 0.009 0.002 0.020 0.002 0.029 0.004l201.207 40.24c15.005 3.001 24.736 17.594 21.735 32.6-3.001 15.008-17.601 24.751-32.6 21.735l-97.123-19.423c-4.3-0.86-7.106 4.38-4.003 7.481l123.547 123.547c10.79 10.79 11.362 29.002 0.563 39.783-5.408 5.399-12.49 8.097-19.571 8.097-7.088 0-14.181-2.706-19.591-8.114l-124.13-124.128c-3.101-3.101-8.341-0.297-7.481 4.003l19.425 97.123c3.001 15.005-6.729 29.598-21.735 32.6-1.833 0.368-3.659 0.545-5.464 0.543-12.935 0-24.503-9.105-27.136-22.278l-40.242-201.205c-0.002-0.007-0.002-0.013-0.002-0.020-0.206-1.042-0.341-2.090-0.428-3.145-0.024-0.286-0.027-0.57-0.040-0.856-0.038-0.758-0.049-1.514-0.027-2.274 0.002-0.339 0.018-0.676 0.040-1.015zM400.834 532.148c0.774 0.053 1.545 0.142 2.312 0.259 0.253 0.038 0.508 0.064 0.758 0.109 1.035 0.186 2.061 0.426 3.074 0.729 0.020 0.007 0.038 0.013 0.058 0.020 0.971 0.295 1.926 0.658 2.868 1.062 0.231 0.1 0.454 0.213 0.685 0.317 0.725 0.335 1.436 0.703 2.137 1.104 0.262 0.149 0.519 0.299 0.776 0.459 0.669 0.412 1.319 0.862 1.957 1.337 0.231 0.171 0.463 0.328 0.689 0.508 0.829 0.658 1.638 1.356 2.405 2.123s1.463 1.574 2.121 2.403c0.177 0.226 0.337 0.461 0.508 0.692 0.474 0.636 0.922 1.286 1.334 1.953 0.16 0.257 0.31 0.516 0.461 0.78 0.401 0.698 0.765 1.407 1.099 2.13 0.106 0.231 0.219 0.457 0.319 0.689 0.403 0.94 0.767 1.895 1.062 2.866 0.004 0.018 0.013 0.035 0.020 0.055 0.306 1.015 0.545 2.046 0.734 3.085 0.044 0.239 0.066 0.479 0.104 0.72 0.12 0.785 0.211 1.569 0.264 2.361 0.022 0.326 0.035 0.652 0.047 0.977 0.024 0.771 0.013 1.543-0.027 2.314-0.013 0.277-0.018 0.552-0.040 0.827-0.086 1.055-0.222 2.106-0.428 3.147-0.002 0.009-0.002 0.020-0.004 0.029l-40.242 201.203c-3.001 15.005-17.594 24.736-32.6 21.735-15.008-3.001-24.751-17.601-21.735-32.6l19.423-97.123c0.86-4.3-4.38-7.106-7.481-4.003l-123.545 123.547c-10.79 10.79-29.002 11.362-39.783 0.563-5.399-5.408-8.097-12.49-8.097-19.571 0-7.088 2.706-14.181 8.114-19.591l124.128-124.13c3.101-3.101 0.297-8.341-4.003-7.481l-97.123 19.425c-15.005 3.001-29.598-6.729-32.6-21.735-0.368-1.833-0.545-3.659-0.543-5.464 0-12.935 9.105-24.503 22.278-27.136l201.205-40.242c0.007-0.002 0.013-0.002 0.020-0.002 1.042-0.206 2.090-0.341 3.145-0.428 0.286-0.024 0.57-0.027 0.856-0.040 0.758-0.038 1.514-0.049 2.274-0.027 0.341 0.007 0.678 0.022 1.015 0.044zM598.082 448c0-47.542-38.54-86.082-86.082-86.082s-86.082 38.54-86.082 86.082c0 47.542 38.54 86.082 86.082 86.082s86.082-38.54 86.082-86.082z" />
<glyph unicode="&#xe60f;" glyph-name="departing" d="M909.653 903.281h-795.307c-31.826 0-57.628-25.802-57.628-57.628v-795.307c0-31.826 25.802-57.628 57.628-57.628h795.307c31.826 0 57.628 25.802 57.628 57.628v795.307c0 31.826-25.802 57.628-57.628 57.628zM911.87 76.944c0-15.914-12.9-28.814-28.814-28.814h-742.112c-15.914 0-28.814 12.9-28.814 28.814v742.112c0 15.914 12.9 28.814 28.814 28.814h742.112c15.914 0 28.814-12.9 28.814-28.814v-742.112zM852.644 136.405c-0.016 0.286-0.018 0.57-0.040 0.856-0.086 1.055-0.222 2.106-0.428 3.145-0.002 0.007-0.002 0.013-0.002 0.020l-40.242 201.207c-3.001 15.005-17.59 24.738-32.6 21.735-15.005-3.001-24.736-17.594-21.735-32.6l19.425-97.123c0.86-4.3-4.38-7.106-7.481-4.003l-123.481 123.481c-10.787 10.787-28.479 11.601-39.462 1.011-11.189-10.787-11.311-28.601-0.368-39.544l124.13-124.13c3.101-3.101 0.297-8.341-4.003-7.481l-97.123 19.425c-14.985 3.001-29.598-6.727-32.6-21.735-3.001-15.005 6.729-29.598 21.735-32.6l201.207-40.242c0.009-0.002 0.020-0.002 0.029-0.004 0.734-0.144 1.472-0.246 2.212-0.33 0.166-0.020 0.332-0.055 0.499-0.071 0.895-0.086 1.793-0.133 2.691-0.133 0.9 0 1.8 0.047 2.695 0.133 0.166 0.016 0.328 0.053 0.494 0.071 0.731 0.084 1.461 0.182 2.183 0.324 0.109 0.022 0.213 0.055 0.321 0.078 0.776 0.162 1.547 0.348 2.312 0.576 0.029 0.009 0.055 0.020 0.084 0.029 2.531 0.771 4.974 1.906 7.241 3.418 0.084 0.055 0.164 0.124 0.248 0.182 0.663 0.452 1.317 0.922 1.946 1.436 0.714 0.583 1.403 1.206 2.064 1.866 0.767 0.767 1.465 1.574 2.123 2.405 0.177 0.224 0.337 0.459 0.508 0.689 0.474 0.638 0.924 1.288 1.337 1.957 0.157 0.257 0.308 0.514 0.459 0.776 0.401 0.698 0.767 1.412 1.104 2.137 0.106 0.228 0.219 0.454 0.319 0.685 0.403 0.942 0.767 1.895 1.062 2.866 0.007 0.020 0.013 0.038 0.020 0.058 0.306 1.013 0.543 2.039 0.729 3.074 0.047 0.25 0.071 0.505 0.109 0.758 0.117 0.769 0.206 1.538 0.259 2.312 0.022 0.337 0.038 0.674 0.049 1.013 0.020 0.76 0.009 1.516-0.031 2.274zM394.77 202.404l-97.123-19.425c-4.3-0.86-7.106 4.38-4.003 7.481l124.128 124.13c10.818 10.821 10.818 28.362 0 39.182-10.821 10.818-28.362 10.818-39.182 0l-124.128-124.128c-3.101-3.101-8.341-0.297-7.481 4.003l19.425 97.123c3.001 15.005-6.731 29.598-21.735 32.6-15.012 3.014-29.601-6.729-32.602-21.735l-40.242-201.207c-0.002-0.013-0.002-0.024-0.004-0.038-0.204-1.031-0.337-2.070-0.423-3.114-0.024-0.301-0.029-0.601-0.042-0.9-0.038-0.743-0.049-1.485-0.024-2.23 0.011-0.348 0.027-0.692 0.049-1.037 0.051-0.762 0.14-1.523 0.255-2.281 0.040-0.262 0.066-0.525 0.113-0.787 0.186-1.031 0.423-2.055 0.727-3.063 0.009-0.027 0.020-0.053 0.029-0.080 0.295-0.964 0.652-1.911 1.053-2.844 0.1-0.235 0.215-0.461 0.321-0.694 0.335-0.723 0.7-1.432 1.099-2.128 0.151-0.262 0.301-0.521 0.461-0.78 0.412-0.665 0.858-1.312 1.332-1.95 0.173-0.233 0.332-0.47 0.512-0.696 0.658-0.829 1.354-1.636 2.121-2.403 0.661-0.661 1.35-1.283 2.066-1.868 0.601-0.492 1.226-0.938 1.857-1.372 0.115-0.078 0.222-0.171 0.337-0.246 2.263-1.507 4.699-2.64 7.223-3.411 0.033-0.011 0.066-0.024 0.102-0.035 0.76-0.228 1.529-0.412 2.303-0.574 0.111-0.022 0.217-0.058 0.328-0.080 0.723-0.142 1.45-0.239 2.179-0.324 0.168-0.020 0.332-0.055 0.501-0.073 0.895-0.086 1.795-0.133 2.695-0.133 0.902 0 1.802 0.047 2.7 0.133 0.122 0.011 0.242 0.038 0.361 0.053 0.785 0.086 1.565 0.195 2.341 0.348 0.011 0.002 0.022 0.002 0.033 0.004l201.207 40.242c15.005 3.001 24.736 17.594 21.735 32.6s-17.605 24.749-32.604 21.737zM852.622 762.88c-0.053 0.774-0.142 1.545-0.259 2.312-0.038 0.253-0.064 0.508-0.109 0.758-0.186 1.035-0.426 2.061-0.729 3.074-0.007 0.020-0.013 0.038-0.020 0.058-0.295 0.971-0.658 1.926-1.062 2.868-0.1 0.231-0.213 0.454-0.317 0.685-0.335 0.725-0.703 1.436-1.104 2.137-0.149 0.262-0.299 0.519-0.459 0.776-0.412 0.669-0.862 1.319-1.337 1.957-0.171 0.231-0.328 0.463-0.508 0.689-0.658 0.829-1.356 1.638-2.123 2.405s-1.574 1.463-2.403 2.121c-0.226 0.177-0.461 0.337-0.692 0.508-0.636 0.474-1.286 0.922-1.953 1.334-0.257 0.16-0.516 0.31-0.78 0.461-0.698 0.401-1.407 0.765-2.13 1.099-0.231 0.106-0.457 0.219-0.689 0.319-0.94 0.403-1.895 0.767-2.866 1.062-0.018 0.004-0.035 0.013-0.055 0.020-1.015 0.306-2.046 0.545-3.085 0.734-0.239 0.044-0.479 0.066-0.72 0.104-0.785 0.12-1.569 0.211-2.361 0.264-0.326 0.022-0.652 0.035-0.977 0.047-0.771 0.024-1.543 0.013-2.314-0.027-0.277-0.013-0.552-0.018-0.827-0.040-1.055-0.086-2.106-0.222-3.147-0.428-0.009-0.002-0.020-0.002-0.029-0.004l-201.203-40.242c-15.005-3.001-24.736-17.594-21.735-32.6 3.001-15.008 17.601-24.751 32.6-21.735l97.123 19.423c4.3 0.86 7.106-4.38 4.003-7.481l-123.547-123.547c-10.79-10.79-11.362-29.002-0.563-39.783 5.408-5.399 12.49-8.097 19.571-8.097 7.088 0 14.181 2.706 19.591 8.114l124.13 124.128c3.101 3.101 8.341 0.297 7.481-4.003l-19.425-97.123c-3.001-15.005 6.729-29.598 21.735-32.6 1.833-0.368 3.659-0.545 5.464-0.543 12.935 0 24.503 9.105 27.136 22.278l40.242 201.205c0.002 0.007 0.002 0.013 0.002 0.020 0.206 1.042 0.341 2.090 0.428 3.145 0.024 0.286 0.027 0.57 0.040 0.856 0.038 0.758 0.049 1.514 0.027 2.274-0.007 0.344-0.020 0.68-0.044 1.017zM195.843 788.622c-0.774-0.053-1.545-0.142-2.312-0.259-0.253-0.038-0.508-0.064-0.758-0.109-1.035-0.186-2.061-0.426-3.074-0.729-0.020-0.007-0.038-0.013-0.058-0.020-0.971-0.295-1.926-0.658-2.868-1.062-0.231-0.1-0.454-0.213-0.685-0.317-0.725-0.335-1.436-0.703-2.137-1.104-0.262-0.149-0.519-0.299-0.776-0.459-0.669-0.412-1.319-0.862-1.957-1.337-0.231-0.171-0.463-0.328-0.689-0.508-0.829-0.658-1.638-1.356-2.405-2.123s-1.463-1.574-2.121-2.403c-0.177-0.226-0.337-0.461-0.508-0.692-0.474-0.636-0.922-1.286-1.334-1.953-0.16-0.257-0.31-0.516-0.461-0.78-0.401-0.698-0.765-1.407-1.099-2.13-0.106-0.231-0.219-0.457-0.319-0.689-0.403-0.94-0.767-1.895-1.062-2.866-0.004-0.018-0.013-0.035-0.020-0.055-0.306-1.015-0.545-2.046-0.734-3.085-0.044-0.239-0.066-0.479-0.104-0.72-0.12-0.785-0.211-1.569-0.264-2.361-0.022-0.326-0.035-0.652-0.047-0.977-0.024-0.771-0.013-1.543 0.027-2.314 0.013-0.277 0.018-0.552 0.040-0.827 0.086-1.055 0.222-2.106 0.428-3.147 0.002-0.009 0.002-0.020 0.004-0.029l40.24-201.207c3.001-15.005 17.594-24.736 32.6-21.735 15.008 3.001 24.751 17.601 21.735 32.6l-19.423 97.123c-0.86 4.3 4.38 7.106 7.481 4.003l123.547-123.547c10.79-10.79 29.002-11.362 39.783-0.563 5.399 5.408 8.097 12.49 8.097 19.571 0 7.088-2.706 14.181-8.114 19.591l-124.128 124.13c-3.101 3.101-0.297 8.341 4.003 7.481l97.123-19.425c15.005-3.001 29.598 6.729 32.6 21.735 0.368 1.833 0.545 3.659 0.543 5.464 0 12.935-9.105 24.503-22.278 27.136l-201.205 40.249c-0.007 0.002-0.013 0.002-0.020 0.002-1.042 0.206-2.090 0.341-3.145 0.428-0.286 0.024-0.57 0.027-0.856 0.040-0.758 0.038-1.514 0.049-2.274 0.027-0.339-0.009-0.676-0.024-1.015-0.047zM598.082 448c0-47.542-38.54-86.082-86.082-86.082s-86.082 38.54-86.082 86.082c0 47.542 38.54 86.082 86.082 86.082s86.082-38.54 86.082-86.082z" />
<glyph unicode="&#xe610;" glyph-name="pointer" d="M867.687 590.635h-241.15c-15.914 0-28.814 12.9-28.814 28.814v125.923c0 55.888-44.861 101.356-100.002 101.356-0.629 0-1.255-0.007-1.891-0.018-54.044-1.037-98.011-45.865-98.011-99.935 0-77.7-32.839-122.911-89.558-174.749-5.703-5.213-11.213-10.377-16.566-15.513-2.762-2.649-7.339-0.68-7.339 3.145 0 16.907-12.9 30.614-28.814 30.614h-170.011c-15.914 0-28.814-13.707-28.814-30.614v-422.506c0-16.907 12.9-30.614 28.814-30.614h170.013c15.914 0 28.814 13.707 28.814 30.614v4.87c0 3.143 3.181 5.288 6.095 4.109l88.051-35.609c0.556-0.226 1.119-0.432 1.689-0.623 8.828-2.943 18.026-4.435 27.335-4.435h246.744c47.74 0 86.442 38.701 86.442 86.442v172.229c0 14.688 11.909 26.597 26.597 26.597h98.967c27.143 0 53.665 11.162 72.759 30.627 18.94 19.303 29.089 44.61 28.581 71.261-1.035 54.048-45.863 98.016-99.933 98.016zM226.732 190.765c0-14.688-11.909-26.597-26.597-26.597h-59.19c-14.688 0-26.597 11.909-26.597 26.597v315.286c0 14.688 11.909 26.597 26.597 26.597h59.19c14.688 0 26.597-11.909 26.597-26.597v-315.286zM897.906 461.718c-8.329-8.489-19.855-13.356-31.624-13.356h-125.564c-31.826 0-57.628-25.802-57.628-57.628v-198.827c0-15.914-12.9-28.814-28.814-28.814h-246.744c-2.855 0-5.676 0.419-8.398 1.25l-97.79 39.548c-10.049 4.063-16.626 13.817-16.626 24.658v227.279c0 6.563 2.429 12.878 6.8 17.776 16.393 18.374 34.71 36.771 55.622 55.886 65.011 59.414 108.309 119.101 108.309 217.29 0 22.894 18.612 41.878 41.485 42.314l0.787 0.009c22.969 0 42.374-20.026 42.374-43.728v-125.923c0-47.74 38.701-86.442 86.442-86.442h239.88c19.432 0 37.059-12.614 42.13-31.374 3.93-14.535-0.202-29.279-10.641-39.918zM198.995 248.814c0-15.715-12.74-28.455-28.455-28.455s-28.455 12.74-28.455 28.455c0 15.715 12.74 28.455 28.455 28.455s28.455-12.74 28.455-28.455z" />
<glyph unicode="&#xe611;" glyph-name="arrow" d="M961.423 92.539l-387.726 779.326c-8.56 17.049-24.609 28.47-43.077 31.154v0.618h-37.241v-0.618c-18.47-2.686-34.526-14.119-43.123-31.248l-387.635-779.142c-9.048-18.020-8.196-38.912 2.272-55.886 10.553-17.107 29.379-27.734 49.132-27.737 0.002 0 0.004 0 0.007 0 9.646 0 19.343 2.547 28.038 7.37l355.955 197.39c8.693 4.821 19.254 4.821 27.947 0l355.953-197.39c8.697-4.823 18.394-7.37 28.040-7.37 19.755 0 38.582 10.626 49.136 27.732 10.473 16.978 11.324 37.868 2.321 55.799zM472.993 282.755c0-10.473-5.674-20.117-14.835-25.197-43.954-24.368-175.855-97.497-262.962-145.785-24.74-13.715-52.357 12.716-39.756 38.041l309.15 621.366c2.086 4.191 8.403 2.709 8.403-1.975v-486.451z" />
<glyph unicode="&#xe612;" glyph-name="right" d="M360.67 170.924c-0.002 0-0.004 0-0.007 0-72.897 0.002-132.202 59.37-132.202 132.338v289.475c0 72.972 59.308 132.34 132.205 132.34 19.104 0 37.748-4.134 55.418-12.29l313.599-144.739c47.377-21.865 76.809-67.865 76.809-120.045 0-52.184-29.43-98.184-76.809-120.052l-313.599-144.736c-17.67-8.154-36.314-12.29-55.413-12.29zM360.665 667.449c-41.122 0-74.577-33.515-74.577-74.712v-289.475c0-41.193 33.455-74.708 74.579-74.71h0.002c10.701 0 21.218 2.352 31.265 6.986l313.599 144.736c27.132 12.523 43.332 37.841 43.332 67.726s-16.2 55.201-43.332 67.724l-313.599 144.739c-10.047 4.635-20.566 6.986-31.27 6.986z" />
<glyph unicode="&#xe613;" glyph-name="down" d="M240.401 604.807c0 0.002 0 0.004 0 0.007 0.002 72.897 59.37 132.202 132.338 132.202h289.475c72.972 0 132.34-59.308 132.34-132.205 0-19.104-4.134-37.748-12.29-55.418l-144.739-313.599c-21.865-47.377-67.865-76.809-120.045-76.809-52.184 0-98.184 29.43-120.052 76.809l-144.736 313.599c-8.157 17.67-12.29 36.314-12.29 55.413zM736.923 604.812c0 41.122-33.515 74.577-74.712 74.577h-289.473c-41.193 0-74.708-33.455-74.71-74.579v-0.002c0-10.701 2.352-21.218 6.986-31.265l144.736-313.599c12.523-27.132 37.841-43.332 67.726-43.332s55.201 16.2 67.724 43.332l144.739 313.599c4.635 10.045 6.984 20.566 6.984 31.27z" />
<glyph unicode="&#xe614;" glyph-name="left" d="M674.282 725.076c0.002 0 0.004 0 0.007 0 72.897-0.002 132.202-59.37 132.202-132.338v-289.475c0-72.972-59.308-132.34-132.205-132.34-19.104 0-37.748 4.134-55.418 12.29l-313.599 144.739c-47.377 21.865-76.809 67.865-76.809 120.045 0 52.184 29.43 98.184 76.809 120.052l313.599 144.736c17.672 8.157 36.314 12.29 55.413 12.29zM674.286 228.551c41.122 0 74.577 33.515 74.577 74.712v289.475c0 41.193-33.455 74.708-74.579 74.71h-0.002c-10.701 0-21.218-2.352-31.265-6.986l-313.599-144.736c-27.132-12.523-43.332-37.841-43.332-67.726s16.2-55.201 43.332-67.724l313.599-144.739c10.047-4.635 20.566-6.986 31.27-6.986z" />
<glyph unicode="&#xe615;" glyph-name="up" d="M794.551 291.193c0-0.002 0-0.004 0-0.007-0.002-72.897-59.37-132.202-132.338-132.202h-289.473c-72.972 0-132.34 59.308-132.34 132.205 0 19.104 4.134 37.748 12.29 55.418l144.739 313.599c21.865 47.377 67.865 76.809 120.045 76.809 52.184 0 98.184-29.43 120.052-76.809l144.736-313.599c8.154-17.67 12.288-36.312 12.288-55.413zM298.028 291.188c0-41.122 33.515-74.577 74.712-74.577h289.475c41.193 0 74.708 33.455 74.71 74.579v0.002c0 10.701-2.352 21.218-6.986 31.265l-144.736 313.599c-12.523 27.132-37.841 43.332-67.726 43.332s-55.201-16.2-67.724-43.332l-144.739-313.599c-4.637-10.045-6.986-20.566-6.986-31.27z" />
<glyph unicode="&#xe616;" glyph-name="rewind" d="M397.469 615.174c0.002 0 0.002 0 0 0 47.663-0.002 86.435-38.81 86.435-86.508v-161.329c0-47.7-38.775-86.508-86.435-86.508-12.505 0-24.693 2.7-36.23 8.024l-174.774 80.663c-30.975 14.296-50.214 44.371-50.216 78.485 0 34.118 19.243 64.191 50.216 78.487l174.776 80.663c11.532 5.324 23.723 8.024 36.228 8.024zM397.469 338.454c13.855 0 28.807 11.040 28.807 28.88v161.329c0 17.838-14.952 28.88-28.807 28.88-4.105 0-8.17-0.915-12.080-2.722l-174.776-80.663c-15.531-7.166-16.739-21.836-16.739-26.163 0-4.324 1.208-18.991 16.741-26.161l174.772-80.665c3.91-1.8 7.975-2.715 12.082-2.715zM801.315 615.174c0 0 0 0 0.002 0 47.658-0.002 86.433-38.81 86.433-86.508v-161.329c0-47.7-38.775-86.508-86.435-86.508-12.505 0-24.696 2.7-36.232 8.024l-174.772 80.665c-30.975 14.296-50.218 44.371-50.218 78.485 0 34.118 19.243 64.191 50.218 78.487l174.772 80.663c11.539 5.322 23.729 8.021 36.232 8.021zM801.318 338.454c13.853 0 28.807 11.040 28.807 28.88v161.329c0 17.838-14.954 28.88-28.807 28.88-4.107 0-8.172-0.915-12.082-2.722l-174.774-80.663c-15.531-7.168-16.739-21.836-16.739-26.163 0-4.324 1.208-18.991 16.739-26.161l174.772-80.665c3.912-1.8 7.977-2.715 12.084-2.715z" />
<glyph unicode="&#xe617;" glyph-name="forward" d="M626.531 280.826c-0.002 0-0.002 0 0 0-47.663 0.002-86.435 38.81-86.435 86.508v161.329c0 47.7 38.775 86.508 86.435 86.508 12.505 0 24.693-2.7 36.23-8.024l174.776-80.665c30.975-14.296 50.214-44.371 50.216-78.485 0-34.118-19.243-64.191-50.216-78.487l-174.776-80.663c-11.534-5.322-23.725-8.021-36.23-8.021zM626.531 557.546c-13.855 0-28.807-11.040-28.807-28.88v-161.329c0-17.838 14.952-28.88 28.807-28.88 4.105 0 8.17 0.915 12.080 2.722l174.776 80.663c15.531 7.166 16.739 21.836 16.739 26.163 0 4.324-1.208 18.991-16.741 26.161l-174.772 80.665c-3.91 1.8-7.975 2.715-12.082 2.715zM222.685 280.826c0 0 0 0-0.002 0-47.658 0.002-86.433 38.81-86.433 86.508v161.329c0 47.7 38.775 86.508 86.435 86.508 12.505 0 24.696-2.7 36.232-8.024l174.772-80.665c30.975-14.296 50.218-44.371 50.218-78.485 0-34.118-19.243-64.191-50.218-78.487l-174.772-80.663c-11.539-5.322-23.729-8.021-36.232-8.021zM222.682 557.546c-13.853 0-28.807-11.040-28.807-28.88v-161.329c0-17.838 14.954-28.88 28.807-28.88 4.107 0 8.172 0.915 12.082 2.722l174.774 80.663c15.531 7.168 16.739 21.836 16.739 26.163 0 4.324-1.208 18.991-16.739 26.161l-174.772 80.665c-3.912 1.8-7.977 2.715-12.084 2.715z" />
<glyph unicode="&#xe618;" glyph-name="pause" d="M355.496 163.091c-55.114 0-99.951 44.837-99.951 99.951v369.914c0 55.114 44.837 99.953 99.951 99.953s99.951-44.837 99.951-99.953v-369.917c0-55.11-44.837-99.949-99.951-99.949zM355.496 675.281c-23.337 0-42.323-18.986-42.323-42.325v-369.917c0-23.337 18.986-42.323 42.323-42.323s42.323 18.984 42.323 42.323v369.917c0 23.339-18.984 42.325-42.323 42.325zM668.504 163.091c-55.114 0-99.953 44.837-99.953 99.951v369.914c0 55.114 44.837 99.953 99.953 99.953 55.112 0 99.951-44.837 99.951-99.953v-369.917c0-55.11-44.839-99.949-99.951-99.949zM668.504 675.281c-23.337 0-42.325-18.986-42.325-42.325v-369.917c0-23.337 18.986-42.323 42.325-42.323s42.323 18.984 42.323 42.323v369.917c0 23.339-18.986 42.325-42.323 42.325z" />
<glyph unicode="&#xe619;" glyph-name="stop" d="M652.84 163.091h-281.68c-79.44 0-144.069 64.629-144.069 144.069v281.68c0 79.44 64.629 144.069 144.069 144.069h281.678c79.44 0 144.069-64.629 144.069-144.069v-281.68c0.002-79.44-64.629-144.069-144.067-144.069zM371.16 675.281c-47.665 0-86.442-38.777-86.442-86.442v-281.68c0-47.665 38.777-86.442 86.442-86.442h281.678c47.665 0 86.442 38.777 86.442 86.442v281.68c0 47.665-38.777 86.442-86.442 86.442h-281.678z" />
<glyph unicode="&#xe61a;" glyph-name="rec" d="M512 618.013c93.745 0 170.013-76.268 170.013-170.013s-76.268-170.013-170.013-170.013-170.013 76.268-170.013 170.013 76.268 170.013 170.013 170.013zM512 675.641c-125.721 0-227.641-101.919-227.641-227.641s101.919-227.641 227.641-227.641 227.641 101.919 227.641 227.641c0 125.721-101.919 227.641-227.641 227.641v0z" />
<glyph unicode="&#xe61b;" glyph-name="plus" d="M681.918 476.814h-112.29c-15.914 0-28.814 12.9-28.814 28.814v112.288c0 15.515-11.922 28.865-27.422 29.594-16.546 0.78-30.206-12.405-30.206-28.781v-113.101c0-15.914-12.9-28.814-28.814-28.814h-112.288c-15.515 0-28.865-11.922-29.594-27.422-0.78-16.546 12.405-30.206 28.781-30.206h113.101c15.914 0 28.814-12.9 28.814-28.814v-112.288c0-15.515 11.922-28.865 27.422-29.594 16.546-0.78 30.206 12.405 30.206 28.781v113.101c0 15.914 12.9 28.814 28.814 28.814h113.103c16.375 0 29.561 13.66 28.781 30.206-0.729 15.5-14.079 27.422-29.594 27.422z" />
<glyph unicode="&#xe61c;" glyph-name="minus" d="M682.731 419.186h-341.462c-15.914 0-28.814 12.9-28.814 28.814s12.9 28.814 28.814 28.814h341.462c15.914 0 28.814-12.9 28.814-28.814s-12.9-28.814-28.814-28.814z" />
<glyph unicode="&#xe61d;" glyph-name="times" d="M573.123 468.376l79.3 79.3c11.217 11.217 12.066 29.614 1.057 41.038-11.215 11.639-29.751 11.767-41.131 0.388l-79.976-79.976c-11.253-11.253-29.497-11.253-40.749 0l-79.976 79.976c-11.253 11.253-29.497 11.253-40.749 0s-11.253-29.497 0-40.749l79.976-79.976c11.253-11.253 11.253-29.497 0-40.749l-79.976-79.976c-11.253-11.253-11.253-29.497 0-40.749 5.628-5.625 12.999-8.44 20.374-8.44s14.748 2.815 20.374 8.44l79.976 79.976c11.253 11.253 29.497 11.253 40.749 0l79.976-79.976c5.628-5.628 12.999-8.44 20.374-8.44 7.372 0 14.748 2.813 20.374 8.438 11.211 11.211 10.603 30.146-0.607 41.357l-79.369 79.369c-11.248 11.255-11.248 29.499 0.004 40.752z" />
<glyph unicode="&#xe61e;" glyph-name="divide" d="M682.731 476.814h-341.462c-15.914 0-28.814-12.9-28.814-28.814s12.9-28.814 28.814-28.814h341.462c15.914 0 28.814 12.9 28.814 28.814s-12.9 28.814-28.814 28.814zM569.628 590.992c0-31.827-25.801-57.628-57.628-57.628s-57.628 25.801-57.628 57.628c0 31.827 25.801 57.628 57.628 57.628s57.628-25.801 57.628-57.628zM569.628 306.442c0-31.827-25.801-57.628-57.628-57.628s-57.628 25.801-57.628 57.628c0 31.827 25.801 57.628 57.628 57.628s57.628-25.801 57.628-57.628z" />
<glyph unicode="&#xe61f;" glyph-name="equal" d="M682.731 334.181h-341.462c-15.914 0-28.814 12.9-28.814 28.814s12.9 28.814 28.814 28.814h341.462c15.914 0 28.814-12.9 28.814-28.814s-12.9-28.814-28.814-28.814zM682.731 504.191h-341.462c-15.914 0-28.814 12.9-28.814 28.814s12.9 28.814 28.814 28.814h341.462c15.914 0 28.814-12.9 28.814-28.814s-12.9-28.814-28.814-28.814z" />
<glyph unicode="&#xe620;" glyph-name="calculator" d="M795.832 903.281h-567.664c-31.826 0-57.628-25.802-57.628-57.628v-795.307c0-31.826 25.802-57.628 57.628-57.628h567.666c31.826 0 57.628 25.802 57.628 57.628v795.307c-0.002 31.826-25.802 57.628-57.63 57.628zM767.018 50.347h-510.036c-15.914 0-28.814 12.9-28.814 28.814v737.679c0 15.914 12.9 28.814 28.814 28.814h510.038c15.914 0 28.814-12.9 28.814-28.814v-737.679c-0.002-15.912-12.902-28.814-28.816-28.814zM398.897 163.45c0-31.827-25.801-57.628-57.628-57.628s-57.628 25.801-57.628 57.628c0 31.827 25.801 57.628 57.628 57.628s57.628-25.801 57.628-57.628zM569.628 163.45c0-31.827-25.801-57.628-57.628-57.628s-57.628 25.801-57.628 57.628c0 31.827 25.801 57.628 57.628 57.628s57.628-25.801 57.628-57.628zM740.359 163.45c0-31.827-25.801-57.628-57.628-57.628s-57.628 25.801-57.628 57.628c0 31.827 25.801 57.628 57.628 57.628s57.628-25.801 57.628-57.628zM398.897 334.897c0-31.827-25.801-57.628-57.628-57.628s-57.628 25.801-57.628 57.628c0 31.827 25.801 57.628 57.628 57.628s57.628-25.801 57.628-57.628zM569.628 334.897c0-31.827-25.801-57.628-57.628-57.628s-57.628 25.801-57.628 57.628c0 31.827 25.801 57.628 57.628 57.628s57.628-25.801 57.628-57.628zM740.359 334.897c0-31.827-25.801-57.628-57.628-57.628s-57.628 25.801-57.628 57.628c0 31.827 25.801 57.628 57.628 57.628s57.628-25.801 57.628-57.628zM398.897 504.91c0-31.827-25.801-57.628-57.628-57.628s-57.628 25.801-57.628 57.628c0 31.827 25.801 57.628 57.628 57.628s57.628-25.801 57.628-57.628zM569.628 504.91c0-31.827-25.801-57.628-57.628-57.628s-57.628 25.801-57.628 57.628c0 31.827 25.801 57.628 57.628 57.628s57.628-25.801 57.628-57.628zM740.359 504.91c0-31.827-25.801-57.628-57.628-57.628s-57.628 25.801-57.628 57.628c0 31.827 25.801 57.628 57.628 57.628s57.628-25.801 57.628-57.628zM313.173 618.731h397.653c15.914 0 28.814 12.9 28.814 28.814v113.101c0 15.914-12.9 28.814-28.814 28.814h-397.653c-15.914 0-28.814-12.9-28.814-28.814v-113.103c0-15.912 12.9-28.812 28.814-28.812z" />
<glyph unicode="&#xe621;" glyph-name="curve" d="M938.826 221.922c-19.312 0-38.972 21.196-58.434 63.003-14.839 31.87-27.98 72.505-40.413 115.071-2.802 9.591 4.369 19.192 14.36 19.192h83.673c15.515 0 28.865 11.922 29.594 27.422 0.78 16.546-12.405 30.206-28.781 30.206h-109.229c-6.687 0-12.572 4.433-14.396 10.867-15.116 53.346-31.141 106.095-50.522 147.72-11.089 23.82-44.839 96.305-110.678 96.305s-99.592-72.485-110.683-96.305c-19.381-41.623-35.406-94.374-50.522-147.72-1.824-6.434-7.709-10.867-14.396-10.867h-218.473c-6.687 0-12.572 4.433-14.396 10.867-15.118 53.346-31.143 106.095-50.522 147.72-8.708 18.702-31.396 67.378-72.606 87.441-5.144 2.505-8.416 7.715-8.416 13.438v137.73c0 15.515-11.922 28.865-27.422 29.594-16.546 0.78-30.206-12.405-30.206-28.781v-165.112c-0.532-2.19-0.847-4.466-0.847-6.822s0.313-4.63 0.847-6.822v-674.082c0-15.515 11.922-28.865 27.422-29.594 16.546-0.78 30.206 12.405 30.206 28.781v383.045c0 8.267 6.7 14.968 14.968 14.968h64.61c6.687 0 12.572-4.433 14.396-10.867 15.118-53.346 31.143-106.095 50.522-147.72 11.091-23.82 44.841-96.305 110.683-96.305s99.592 72.485 110.683 96.305c19.381 41.623 35.406 94.374 50.522 147.72 1.824 6.434 7.709 10.867 14.396 10.867h218.464c6.687 0 12.572-4.433 14.396-10.867 15.116-53.346 31.141-106.095 50.522-147.72 10.983-23.594 44.198-94.928 108.806-96.285 15.704-0.33 29.552 11.109 30.618 26.779 1.144 16.825-12.166 30.829-28.745 30.829zM595.562 611.075c19.465 41.807 39.127 63.003 58.439 63.003s38.972-21.196 58.434-63.003c14.839-31.87 27.98-72.505 40.413-115.071 2.802-9.591-4.369-19.192-14.36-19.192h-168.978c-9.992 0-17.162 9.602-14.36 19.192 12.43 42.567 25.573 83.203 40.413 115.071zM142.768 611.075c14.839-31.87 27.98-72.505 40.413-115.069 2.802-9.591-4.369-19.192-14.36-19.192h-39.865c-8.267 0-14.968 6.7-14.968 14.968v113.489c0 15.965 21.726 20.881 28.492 6.421 0.098-0.204 0.193-0.41 0.288-0.616zM427.604 284.925c-19.465-41.804-39.127-63.003-58.439-63.003s-38.974 21.196-58.439 63.003c-14.839 31.87-27.98 72.505-40.413 115.069-2.802 9.591 4.369 19.192 14.36 19.192h168.984c9.992 0 17.162-9.602 14.36-19.192-12.432-42.565-25.576-83.199-40.415-115.069z" />
<glyph unicode="&#xe622;" glyph-name="graphic" d="M938.013 476.814h-144.918c-5.395 0-9.079 5.45-7.070 10.457l61.243 152.525c1.184 2.948 4.041 4.878 7.217 4.878h0.053c66.478 0 119.992 56.575 114.923 124.106-4.229 56.351-49.722 101.841-106.073 106.073-67.531 5.069-124.106-48.445-124.106-114.923 0-39.218 19.7-73.91 49.713-94.736 2.917-2.024 4.052-5.783 2.728-9.076l-64.734-161.225c-4.384-10.92-14.97-18.077-26.739-18.077h-180.011c-10.914 0-20.89 6.166-25.773 15.927l-76.479 152.957c26.054 22.721 41.858 56.916 39.358 94.649-3.761 56.754-49.301 102.795-106.015 107.114-67.588 5.149-124.236-48.392-124.236-114.912 0-23.421 7.039-45.222 19.090-63.43l-82.002-90.733c-17.687-19.569-50.192-7.057-50.192 19.321v276.303c0 15.515-11.922 28.865-27.422 29.594-16.546 0.78-30.206-12.405-30.206-28.781v-852.839c0-15.515 11.922-28.865 27.422-29.594 16.546-0.78 30.206 12.405 30.206 28.781v369.199c0 15.914 12.9 28.814 28.814 28.814h306.203c10.914 0 20.89-6.166 25.773-15.927l75.452-150.905c-26.577-22.586-42.837-56.965-40.523-94.986 3.469-57.020 49.128-103.433 106.090-107.755 67.575-5.129 124.203 48.405 124.203 114.916 0 37.786-18.279 71.381-46.457 92.413l63.226 157.468c1.159 2.888 3.959 4.779 7.070 4.779h174.989c16.375 0 29.561 13.66 28.781 30.206-0.734 15.497-14.083 27.42-29.598 27.42zM796.909 759.93c0 31.777 25.85 57.628 57.628 57.628s57.628-25.85 57.628-57.628c0-25.066-16.091-46.435-38.482-54.345-5.993-2.119-12.434-3.283-19.146-3.283-14.728 0-28.178 5.561-38.376 14.682-11.805 10.559-19.252 25.895-19.252 42.946zM284.719 732.55c0 31.777 25.853 57.628 57.628 57.628s57.628-25.85 57.628-57.628c0-11.716-3.522-22.619-9.551-31.724-10.324-15.593-28.016-25.904-48.077-25.904-1.161 0-2.312 0.044-3.458 0.113-2.939 0.175-5.82 0.57-8.626 1.173-20.185 4.324-36.476 19.248-42.751 38.642-1.806 5.581-2.793 11.526-2.793 17.701zM275.206 615.289c7.74 8.564 19.808 11.572 30.755 7.913 11.441-3.826 23.674-5.905 36.385-5.905 1.997 0 3.981 0.053 5.953 0.155 11.459 0.596 22.184-5.605 27.316-15.868l41.534-83.068c9.579-19.159-4.353-41.7-25.773-41.7h-176.443c-24.975 0-38.123 29.605-21.378 48.135l81.65 90.338zM624.744 106.899c-31.777 0-57.628 25.85-57.628 57.628 0 12.306 3.89 23.712 10.484 33.083 10.437 14.828 27.67 24.545 47.144 24.545 18.623 0 35.202-8.886 45.743-22.634 7.445-9.71 11.885-21.841 11.885-34.993 0-31.777-25.85-57.628-57.628-57.628zM646.315 293.977c-3.5-8.717-12.020-14.21-21.415-14.196-0.053 0-0.104 0-0.157 0-2.587 0-5.153-0.086-7.698-0.257-9.271-0.621-18.057 4.169-22.213 12.479l-47.046 94.093c-7.6 15.203 3.453 33.089 20.449 33.089h94.534c16.189 0 27.249-16.36 21.218-31.383l-37.671-93.825z" />
<glyph unicode="&#xe623;" glyph-name="pie" d="M851.984 419.545h-339.624c-15.914 0-28.814 12.9-28.814 28.814v339.624c0 16.067-13.088 28.821-28.874 28.821-0.754 0-1.514-0.029-2.279-0.089-205.454-15.892-367.219-187.64-367.219-397.17 0-220.65 177.726-398.371 398.369-398.371 0.013 0-0.011 0 0.002 0 209.53 0 381.278 161.765 397.17 367.219 1.299 16.785-11.898 31.152-28.732 31.152zM715.503 169.942c-63.209-58.771-145.588-91.14-231.96-91.14-91.322 0-176.972 35.359-241.179 99.563s-99.565 149.859-99.565 241.181c0 86.373 32.367 168.749 91.14 231.958 42.616 45.832 96.218 78.589 155.156 95.538 18.432 5.302 36.817-8.518 36.817-27.697v-270.985c0-47.74 38.701-86.442 86.442-86.442h270.985c19.179 0 32.999-18.385 27.697-36.817-16.945-58.94-49.699-112.542-95.533-155.158zM938.74 508.407c-14.97 195.409-170.924 351.365-366.335 366.335-0.743 0.058-1.481 0.084-2.21 0.084-15.695 0-28.648-12.866-28.648-28.84v-339.624c0-15.914 12.9-28.814 28.814-28.814h339.624c16.716 0 30.033 14.19 28.754 30.86zM599.175 563.989v213.327c0 19.030 18.179 33.036 36.469 27.779 55.065-15.828 105.722-45.484 146.844-86.606s70.778-91.779 86.606-146.844c5.257-18.29-8.748-36.469-27.779-36.469h-213.327c-15.914 0-28.814 12.9-28.814 28.814z" />
<glyph unicode="&#xe624;" glyph-name="upload" d="M382.812 567.223c4.723-3.15 10.063-4.657 15.342-4.657 8.954 0 17.74 4.331 23.080 12.339l54.939 82.41c2.434 3.648 8.121 1.926 8.121-2.458v-291.304c0-15.254 11.933-28.34 27.185-28.621 15.54-0.286 28.226 12.226 28.226 27.701v292.226c0 4.386 5.687 6.109 8.121 2.458l54.941-82.412c8.485-12.731 25.689-16.176 38.42-7.684 12.731 8.487 16.173 25.689 7.684 38.42l-113.821 170.731c-0.007 0.009-0.013 0.016-0.020 0.024-0.587 0.875-1.23 1.709-1.908 2.511-0.193 0.226-0.397 0.437-0.596 0.656-0.503 0.554-1.022 1.090-1.567 1.602-0.253 0.237-0.505 0.47-0.767 0.696-0.576 0.503-1.175 0.977-1.793 1.432-0.213 0.157-0.419 0.326-0.636 0.477-0.86 0.596-1.751 1.153-2.68 1.651-0.027 0.016-0.058 0.027-0.084 0.040-0.887 0.472-1.806 0.887-2.748 1.261-0.239 0.095-0.483 0.175-0.725 0.266-0.745 0.273-1.503 0.516-2.276 0.727-0.293 0.080-0.585 0.155-0.88 0.226-0.762 0.18-1.538 0.321-2.323 0.437-0.284 0.042-0.563 0.095-0.849 0.129-1.051 0.122-2.117 0.199-3.201 0.199s-2.148-0.078-3.201-0.199c-0.286-0.033-0.565-0.089-0.849-0.129-0.785-0.115-1.56-0.257-2.323-0.437-0.295-0.071-0.587-0.146-0.88-0.226-0.774-0.211-1.532-0.452-2.276-0.727-0.242-0.089-0.485-0.171-0.725-0.266-0.94-0.375-1.86-0.789-2.746-1.261-0.029-0.016-0.060-0.027-0.086-0.042-0.926-0.499-1.817-1.053-2.677-1.649-0.219-0.153-0.428-0.321-0.643-0.481-0.614-0.452-1.21-0.924-1.784-1.425-0.264-0.228-0.519-0.463-0.774-0.703-0.541-0.508-1.055-1.040-1.554-1.589-0.204-0.224-0.414-0.441-0.612-0.672-0.676-0.798-1.317-1.627-1.899-2.498-0.007-0.011-0.018-0.022-0.024-0.033l-113.819-170.729c-8.485-12.729-5.045-29.931 7.687-38.418zM825.005 418.794c-15.3 0-27.706-12.405-27.706-27.706v-83.928c0-48.274-39.275-87.55-87.55-87.55h-395.499c-48.274 0-87.55 39.275-87.55 87.55v83.928c0 15.3-12.405 27.706-27.706 27.706s-27.706-12.405-27.706-27.706v-83.928c0-78.828 64.133-142.961 142.961-142.961h395.499c78.828 0 142.961 64.133 142.961 142.961v83.928c0 15.302-12.403 27.706-27.706 27.706z" />
<glyph unicode="&#xe625;" glyph-name="upload-alt" d="M382.812 624.132c12.734-8.489 29.933-5.047 38.42 7.684l54.939 82.41c2.434 3.648 8.121 1.926 8.121-2.458v-234.394c0-15.254 11.933-28.34 27.185-28.621 15.54-0.286 28.226 12.226 28.226 27.701v235.314c0 4.386 5.687 6.109 8.121 2.458l54.941-82.412c5.337-8.008 14.123-12.341 23.078-12.339 5.28 0 10.619 1.507 15.342 4.657 12.731 8.487 16.173 25.689 7.684 38.42l-113.819 170.731c-0.007 0.009-0.013 0.016-0.020 0.024-0.587 0.875-1.23 1.709-1.908 2.511-0.193 0.226-0.397 0.437-0.596 0.656-0.503 0.554-1.022 1.090-1.567 1.602-0.253 0.237-0.505 0.47-0.767 0.696-0.576 0.503-1.175 0.977-1.793 1.432-0.213 0.157-0.419 0.326-0.636 0.477-0.86 0.596-1.751 1.153-2.68 1.651-0.027 0.016-0.058 0.027-0.084 0.040-0.887 0.472-1.806 0.887-2.748 1.261-0.239 0.095-0.483 0.175-0.725 0.266-0.745 0.273-1.503 0.516-2.276 0.727-0.293 0.080-0.585 0.155-0.88 0.226-0.762 0.18-1.538 0.321-2.323 0.437-0.284 0.042-0.563 0.095-0.849 0.129-1.051 0.122-2.117 0.199-3.201 0.199s-2.148-0.078-3.201-0.199c-0.286-0.033-0.565-0.089-0.849-0.129-0.785-0.115-1.56-0.257-2.323-0.437-0.295-0.071-0.587-0.146-0.88-0.226-0.774-0.211-1.532-0.452-2.276-0.727-0.242-0.089-0.485-0.171-0.725-0.266-0.94-0.375-1.86-0.789-2.746-1.261-0.029-0.016-0.060-0.027-0.086-0.042-0.926-0.499-1.817-1.053-2.677-1.649-0.219-0.153-0.428-0.321-0.643-0.481-0.614-0.452-1.21-0.924-1.784-1.425-0.264-0.228-0.519-0.463-0.774-0.703-0.541-0.508-1.055-1.040-1.554-1.589-0.204-0.224-0.414-0.441-0.612-0.672-0.676-0.798-1.317-1.627-1.899-2.498-0.007-0.011-0.018-0.022-0.024-0.033l-113.817-170.729c-8.487-12.731-5.047-29.933 7.684-38.42zM967.64 212.378c0 10.444-2.839 20.693-8.212 29.649l-72.866 121.444c-10.355 17.257-29.29 27.978-49.416 27.978h-650.293c-20.128 0-39.065-10.721-49.416-27.978l-72.866-121.444c-5.373-8.957-8.212-19.206-8.212-29.649v-48.928h0.359v-55.476c0-63.654 51.601-115.255 115.255-115.255h680.051c63.654 0 115.255 51.601 115.255 115.255v55.476h0.359v48.928zM203.169 333.822h617.665c10.12 0 19.5-5.311 24.707-13.988l33.499-55.832c11.523-19.206-2.312-43.64-24.707-43.64h-228.514c-115.621 0-126.021 0-227.641 0v0h-228.512c-22.397 0-36.23 24.434-24.707 43.64l33.499 55.832c5.209 8.677 14.586 13.988 24.709 13.988zM909.653 107.974c0-31.826-25.802-57.628-57.628-57.628h-680.051c-31.826 0-57.628 25.802-57.628 57.628v25.944c0 15.914 12.9 28.814 28.814 28.814h255.426c8.906 0 17.37-4.072 22.759-11.164 20.784-27.355 53.647-45.029 90.653-45.029s69.869 17.672 90.655 45.029c5.388 7.090 13.853 11.164 22.759 11.164h255.428c15.914 0 28.814-12.9 28.814-28.814v-25.944z" />
<glyph unicode="&#xe626;" glyph-name="download" d="M488.947 347.267c0.007-0.011 0.018-0.022 0.024-0.033 0.583-0.871 1.223-1.7 1.899-2.498 0.197-0.233 0.408-0.448 0.612-0.672 0.499-0.55 1.013-1.082 1.554-1.589 0.255-0.239 0.512-0.474 0.774-0.703 0.574-0.501 1.17-0.973 1.784-1.425 0.215-0.16 0.423-0.328 0.643-0.481 0.86-0.596 1.751-1.153 2.677-1.649 0.029-0.016 0.060-0.027 0.086-0.042 0.887-0.472 1.804-0.887 2.746-1.261 0.239-0.095 0.481-0.175 0.725-0.266 0.745-0.273 1.503-0.516 2.276-0.727 0.293-0.080 0.585-0.155 0.88-0.226 0.762-0.18 1.538-0.321 2.323-0.437 0.284-0.042 0.563-0.095 0.849-0.129 1.051-0.122 2.117-0.199 3.201-0.199s2.148 0.078 3.201 0.199c0.286 0.033 0.565 0.089 0.849 0.129 0.785 0.115 1.56 0.257 2.323 0.437 0.295 0.071 0.587 0.146 0.88 0.226 0.774 0.211 1.532 0.452 2.276 0.727 0.242 0.089 0.485 0.171 0.725 0.266 0.94 0.375 1.862 0.789 2.748 1.261 0.027 0.016 0.058 0.027 0.084 0.040 0.929 0.499 1.817 1.055 2.68 1.651 0.217 0.151 0.423 0.319 0.636 0.477 0.616 0.454 1.217 0.929 1.793 1.432 0.262 0.228 0.514 0.461 0.767 0.696 0.545 0.512 1.064 1.048 1.567 1.602 0.199 0.219 0.403 0.43 0.596 0.656 0.68 0.802 1.323 1.634 1.908 2.511 0.007 0.009 0.013 0.016 0.020 0.024l113.821 170.731c8.489 12.731 5.047 29.933-7.684 38.42-12.727 8.487-29.933 5.047-38.42-7.684l-54.941-82.412c-2.434-3.648-8.121-1.926-8.121 2.458v291.308c0 15.254-11.933 28.34-27.185 28.621-15.542 0.284-28.229-12.228-28.229-27.701v-292.221c0-4.386-5.687-6.109-8.121-2.458l-54.939 82.41c-8.489 12.731-25.691 16.173-38.42 7.684-12.731-8.487-16.171-25.689-7.684-38.42l113.817-170.733zM825.005 418.794c-15.3 0-27.706-12.405-27.706-27.706v-83.928c0-48.274-39.275-87.55-87.55-87.55h-395.499c-48.274 0-87.55 39.275-87.55 87.55v83.928c0 15.3-12.405 27.706-27.706 27.706s-27.706-12.405-27.706-27.706v-83.928c0-78.828 64.133-142.961 142.961-142.961h395.499c78.828 0 142.961 64.133 142.961 142.961v83.928c0 15.302-12.403 27.706-27.706 27.706z" />
<glyph unicode="&#xe627;" glyph-name="download-alt" d="M641.188 670.239c-12.734 8.489-29.933 5.047-38.42-7.684l-54.939-82.41c-2.434-3.648-8.121-1.926-8.121 2.458v234.394c0 15.254-11.933 28.34-27.185 28.621-15.54 0.286-28.226-12.226-28.226-27.701v-235.314c0-4.386-5.687-6.109-8.121-2.458l-54.941 82.412c-5.337 8.008-14.123 12.341-23.078 12.339-5.28 0-10.619-1.507-15.342-4.657-12.731-8.487-16.173-25.689-7.684-38.42l113.821-170.731c0.007-0.009 0.013-0.016 0.020-0.024 0.587-0.875 1.23-1.709 1.908-2.511 0.193-0.226 0.397-0.437 0.596-0.656 0.503-0.554 1.022-1.090 1.567-1.602 0.253-0.237 0.505-0.47 0.767-0.696 0.576-0.503 1.175-0.977 1.793-1.432 0.213-0.157 0.419-0.326 0.636-0.477 0.86-0.596 1.751-1.153 2.68-1.651 0.027-0.016 0.058-0.027 0.084-0.040 0.887-0.472 1.806-0.887 2.748-1.261 0.239-0.095 0.483-0.175 0.725-0.266 0.745-0.273 1.503-0.516 2.276-0.727 0.293-0.080 0.585-0.155 0.88-0.226 0.762-0.18 1.538-0.321 2.323-0.437 0.284-0.042 0.563-0.095 0.849-0.129 1.051-0.122 2.117-0.199 3.201-0.199s2.148 0.078 3.201 0.199c0.286 0.033 0.565 0.089 0.849 0.129 0.785 0.115 1.56 0.257 2.323 0.437 0.295 0.071 0.587 0.146 0.88 0.226 0.774 0.211 1.532 0.452 2.276 0.727 0.242 0.089 0.485 0.171 0.725 0.266 0.94 0.375 1.86 0.789 2.746 1.261 0.029 0.016 0.060 0.027 0.086 0.042 0.926 0.499 1.817 1.053 2.677 1.649 0.219 0.153 0.428 0.321 0.643 0.481 0.614 0.452 1.21 0.924 1.784 1.425 0.264 0.228 0.519 0.463 0.774 0.703 0.541 0.508 1.055 1.040 1.554 1.589 0.204 0.224 0.414 0.441 0.612 0.672 0.676 0.798 1.317 1.627 1.899 2.498 0.007 0.011 0.018 0.022 0.024 0.033l113.819 170.731c8.482 12.729 5.042 29.931-7.689 38.418zM967.64 212.378c0 10.444-2.839 20.693-8.212 29.649l-72.866 121.444c-10.355 17.257-29.29 27.978-49.416 27.978h-650.293c-20.128 0-39.065-10.721-49.416-27.978l-72.866-121.444c-5.373-8.957-8.212-19.206-8.212-29.649v-48.928h0.359v-55.476c0-63.654 51.601-115.255 115.255-115.255h680.051c63.654 0 115.255 51.601 115.255 115.255v55.476h0.359v48.928zM203.169 333.822h617.665c10.12 0 19.5-5.311 24.707-13.988l33.499-55.832c11.523-19.206-2.312-43.64-24.707-43.64h-228.514c-115.621 0-126.021 0-227.641 0v0h-228.512c-22.397 0-36.23 24.434-24.707 43.64l33.499 55.832c5.209 8.677 14.586 13.988 24.709 13.988zM909.653 107.974c0-31.826-25.802-57.628-57.628-57.628h-680.051c-31.826 0-57.628 25.802-57.628 57.628v25.944c0 15.914 12.9 28.814 28.814 28.814h255.426c8.906 0 17.37-4.072 22.759-11.164 20.784-27.355 53.647-45.029 90.653-45.029s69.869 17.672 90.655 45.029c5.388 7.090 13.853 11.164 22.759 11.164h255.428c15.914 0 28.814-12.9 28.814-28.814v-25.944z" />
<glyph unicode="&#xe628;" glyph-name="login" d="M880.995 532.615h-291.304c-4.386 0-6.109 5.687-2.458 8.121l82.412 54.941c12.731 8.487 16.173 25.689 7.684 38.42-8.485 12.729-25.684 16.173-38.42 7.684l-170.731-113.821c-0.009-0.004-0.016-0.013-0.024-0.018-0.882-0.59-1.716-1.235-2.516-1.913-0.222-0.188-0.43-0.392-0.647-0.587-0.561-0.505-1.099-1.031-1.614-1.576-0.235-0.248-0.465-0.501-0.692-0.76-0.508-0.581-0.986-1.184-1.441-1.802-0.155-0.211-0.321-0.412-0.47-0.629-0.598-0.864-1.157-1.758-1.653-2.684-0.013-0.022-0.022-0.047-0.033-0.071-0.477-0.893-0.893-1.82-1.268-2.762-0.095-0.237-0.175-0.481-0.264-0.72-0.275-0.749-0.519-1.509-0.727-2.281-0.080-0.29-0.155-0.583-0.226-0.878-0.182-0.765-0.321-1.54-0.437-2.325-0.042-0.284-0.098-0.563-0.129-0.849-0.122-1.057-0.199-2.123-0.199-3.201s0.075-2.143 0.199-3.201c0.033-0.286 0.089-0.565 0.129-0.849 0.115-0.782 0.257-1.56 0.437-2.325 0.069-0.295 0.146-0.585 0.226-0.878 0.211-0.774 0.452-1.534 0.727-2.283 0.089-0.239 0.168-0.483 0.264-0.72 0.375-0.942 0.793-1.866 1.268-2.762 0.013-0.022 0.022-0.047 0.033-0.071 0.496-0.926 1.055-1.817 1.653-2.684 0.149-0.215 0.315-0.417 0.47-0.627 0.454-0.618 0.933-1.223 1.441-1.804 0.224-0.257 0.454-0.51 0.689-0.758 0.514-0.547 1.055-1.071 1.614-1.578 0.215-0.195 0.423-0.399 0.647-0.587 0.8-0.678 1.634-1.323 2.516-1.913 0.009-0.007 0.016-0.013 0.024-0.018l170.731-113.821c4.723-3.15 10.060-4.657 15.342-4.657 8.952 0 17.74 4.331 23.078 12.339 8.489 12.731 5.047 29.933-7.684 38.42l-82.412 54.941c-3.648 2.434-1.926 8.121 2.458 8.121h292.223c15.473 0 27.985 12.687 27.701 28.226-0.277 15.265-13.363 27.198-28.619 27.198zM595.972 334.507c-15.497-0.729-27.422-14.079-27.422-29.594v-112.29c0-15.914-12.9-28.814-28.814-28.814h-112.744c-15.914 0-28.814 12.9-28.814 28.814v555.303c0 4.65-0.559 9.205-1.62 13.585-1.106 4.561-2.759 8.937-4.898 13.039-0.856 1.64-1.789 3.238-2.795 4.788-0.503 0.774-1.026 1.536-1.565 2.285-3.455 4.792-7.645 9.056-12.443 12.612s-10.202 6.401-16.085 8.363l-104.333 34.778c-4.77 1.589-3.626 8.638 1.401 8.638h283.892c15.914 0 28.814-12.9 28.814-28.814v-112.288c0-15.515 11.922-28.865 27.422-29.594 16.546-0.78 30.206 12.405 30.206 28.781v113.099c0 47.74-38.701 86.442-86.442 86.442h-425.745c-31.826 0-57.628-25.802-57.628-57.628v-653.39c0-2.587 0.135-5.14 0.359-7.667v-39.996c0-9.814 2.489-19.223 6.982-27.493 1.496-2.757 3.216-5.386 5.14-7.864 0.856-1.102 1.751-2.172 2.684-3.209 1.401-1.556 2.89-3.039 4.459-4.44 4.71-4.205 10.158-7.671 16.198-10.189l226.206-94.252c1.077-0.45 2.159-0.853 3.243-1.232 0.328-0.115 0.658-0.219 0.986-0.328 0.778-0.257 1.556-0.499 2.336-0.72 0.352-0.1 0.705-0.199 1.057-0.295 0.849-0.224 1.7-0.428 2.549-0.612 0.244-0.053 0.488-0.115 0.729-0.164 1.084-0.219 2.168-0.408 3.249-0.563 0.259-0.038 0.519-0.062 0.778-0.095 0.833-0.109 1.665-0.199 2.496-0.27 0.355-0.031 0.709-0.055 1.064-0.078 0.776-0.051 1.549-0.084 2.321-0.104 0.321-0.009 0.645-0.020 0.964-0.022 0.144 0 0.288-0.011 0.432-0.011 0.864 0 1.727 0.027 2.584 0.064 0.075 0.004 0.151 0.002 0.226 0.007 1.073 0.053 2.137 0.144 3.198 0.257 0.328 0.035 0.652 0.082 0.977 0.122 0.743 0.093 1.481 0.195 2.216 0.317 0.372 0.062 0.743 0.126 1.113 0.195 0.711 0.131 1.419 0.277 2.121 0.437 0.344 0.078 0.689 0.151 1.031 0.235 0.862 0.211 1.716 0.441 2.564 0.692 0.164 0.049 0.332 0.089 0.494 0.137 1.004 0.304 1.997 0.641 2.979 0.997 0.293 0.106 0.578 0.224 0.869 0.335 0.698 0.266 1.392 0.543 2.077 0.836 0.346 0.146 0.687 0.299 1.028 0.454 0.641 0.288 1.277 0.59 1.906 0.9 0.326 0.162 0.654 0.321 0.977 0.488 0.723 0.375 1.434 0.765 2.139 1.168 0.206 0.117 0.414 0.226 0.618 0.346 0.895 0.528 1.778 1.079 2.644 1.653 0.239 0.157 0.472 0.328 0.709 0.49 0.629 0.43 1.252 0.869 1.866 1.325 0.301 0.224 0.598 0.454 0.898 0.685 0.55 0.423 1.090 0.858 1.625 1.303 0.288 0.239 0.576 0.477 0.858 0.72 0.585 0.505 1.159 1.028 1.724 1.558 0.202 0.191 0.412 0.372 0.612 0.565 0.749 0.723 1.481 1.465 2.19 2.228 0.175 0.188 0.341 0.386 0.514 0.576 0.536 0.59 1.062 1.19 1.574 1.804 0.237 0.284 0.465 0.572 0.696 0.86 0.441 0.55 0.873 1.108 1.297 1.676 0.226 0.304 0.45 0.605 0.669 0.913 0.441 0.618 0.867 1.25 1.283 1.886 0.166 0.255 0.341 0.505 0.503 0.762 0.565 0.893 1.108 1.802 1.625 2.731 0.098 0.177 0.186 0.361 0.284 0.539 0.414 0.762 0.813 1.534 1.192 2.318 0.16 0.328 0.308 0.661 0.461 0.991 0.304 0.661 0.598 1.33 0.878 2.006 0.146 0.355 0.293 0.711 0.432 1.071 0.279 0.714 0.541 1.438 0.791 2.168 0.106 0.31 0.222 0.616 0.324 0.931 0.337 1.040 0.652 2.090 0.931 3.156 0.033 0.124 0.058 0.25 0.089 0.375 0.242 0.949 0.459 1.908 0.654 2.879 0.071 0.355 0.131 0.716 0.195 1.073 0.137 0.762 0.262 1.527 0.37 2.301 0.055 0.397 0.106 0.793 0.155 1.192 0.093 0.791 0.168 1.589 0.228 2.392 0.027 0.357 0.062 0.714 0.082 1.073 0.069 1.157 0.111 2.323 0.111 3.502v26.662c0 15.914 12.9 28.814 28.814 28.814h112.744c47.74 0 86.442 38.701 86.442 86.442v113.105c0.002 16.375-13.658 29.559-30.204 28.781zM132.065 137.575c-10.736 4.473-17.718 14.959-17.718 26.591 0 92.911 0 496.241 0.002 619.203 0 19.667 19.268 33.535 37.926 27.316l168.577-56.191c11.765-3.921 19.702-14.932 19.702-27.335v-633.229c0-20.56-20.906-34.51-39.885-26.602-49.711 20.711-132.515 55.212-168.603 70.248z" />
<glyph unicode="&#xe629;" glyph-name="logout" d="M909.421 508.11c-0.033 0.286-0.089 0.565-0.129 0.849-0.115 0.782-0.257 1.558-0.437 2.323-0.069 0.295-0.146 0.587-0.226 0.88-0.208 0.771-0.452 1.529-0.727 2.276-0.089 0.242-0.171 0.485-0.266 0.725-0.375 0.938-0.789 1.857-1.263 2.748-0.016 0.027-0.027 0.058-0.040 0.084-0.496 0.924-1.053 1.815-1.651 2.68-0.151 0.217-0.319 0.423-0.477 0.636-0.452 0.616-0.929 1.215-1.432 1.793-0.228 0.259-0.461 0.514-0.696 0.767-0.51 0.543-1.046 1.064-1.602 1.567-0.219 0.197-0.43 0.406-0.656 0.596-0.798 0.676-1.629 1.321-2.511 1.908-0.009 0.007-0.016 0.013-0.024 0.020l-169.962 113.309c-12.694 8.462-30.204 5.792-38.896-6.747-8.855-12.771-5.481-30.263 7.394-38.848l82.412-54.941c3.648-2.434 1.926-8.121-2.458-8.121h-291.31c-15.254 0-28.34-11.933-28.619-27.185-0.286-15.54 12.226-28.226 27.701-28.226h292.226c4.386 0 6.109-5.687 2.458-8.121l-82.412-54.941c-12.731-8.487-16.173-25.689-7.684-38.42 5.337-8.008 14.123-12.341 23.078-12.339 5.28 0 10.619 1.507 15.342 4.657l170.729 113.821c0.009 0.007 0.016 0.013 0.024 0.020 0.88 0.59 1.713 1.232 2.511 1.908 0.226 0.191 0.437 0.397 0.656 0.596 0.556 0.503 1.093 1.024 1.605 1.569 0.237 0.25 0.468 0.505 0.696 0.765 0.503 0.578 0.98 1.177 1.434 1.793 0.157 0.213 0.324 0.419 0.477 0.636 0.598 0.864 1.155 1.755 1.651 2.68 0.016 0.027 0.027 0.058 0.040 0.084 0.472 0.891 0.889 1.811 1.263 2.748 0.095 0.237 0.177 0.483 0.266 0.725 0.275 0.747 0.516 1.507 0.727 2.279 0.080 0.293 0.157 0.583 0.226 0.878 0.182 0.765 0.321 1.543 0.437 2.325 0.042 0.284 0.098 0.563 0.129 0.849 0.122 1.057 0.199 2.123 0.199 3.201s-0.078 2.137-0.202 3.194zM595.972 419.871c-15.497-0.729-27.422-14.079-27.422-29.594v-197.654c0-15.914-12.9-28.814-28.814-28.814h-112.744c-15.914 0-28.814 12.9-28.814 28.814v555.303c0 4.65-0.559 9.205-1.62 13.585-1.106 4.561-2.759 8.937-4.898 13.039-0.856 1.64-1.789 3.238-2.795 4.788-0.503 0.774-1.026 1.536-1.565 2.285-3.455 4.792-7.645 9.056-12.443 12.612s-10.202 6.401-16.085 8.363l-104.333 34.778c-4.77 1.589-3.626 8.638 1.401 8.638h283.892c15.914 0 28.814-12.9 28.814-28.814v-197.654c0-15.515 11.922-28.865 27.422-29.594 16.546-0.78 30.206 12.405 30.206 28.781v198.465c0 47.74-38.701 86.442-86.442 86.442h-425.745c-31.826 0-57.628-25.802-57.628-57.628v-653.39c0-2.587 0.135-5.14 0.359-7.667v-39.996c0-9.814 2.489-19.223 6.982-27.493 1.496-2.757 3.216-5.386 5.14-7.864 0.856-1.102 1.751-2.172 2.684-3.209 1.401-1.556 2.89-3.039 4.459-4.44 4.71-4.205 10.158-7.671 16.198-10.189l226.206-94.252c1.077-0.45 2.159-0.853 3.243-1.232 0.328-0.115 0.658-0.219 0.986-0.328 0.778-0.257 1.556-0.499 2.336-0.72 0.352-0.1 0.705-0.199 1.057-0.295 0.849-0.224 1.7-0.428 2.549-0.612 0.244-0.053 0.488-0.115 0.729-0.164 1.084-0.219 2.168-0.408 3.249-0.563 0.259-0.038 0.519-0.062 0.778-0.095 0.833-0.109 1.665-0.199 2.496-0.27 0.355-0.031 0.709-0.055 1.064-0.078 0.776-0.051 1.549-0.084 2.321-0.104 0.321-0.009 0.645-0.020 0.964-0.022 0.144 0 0.288-0.011 0.432-0.011 0.864 0 1.727 0.027 2.584 0.064 0.075 0.004 0.151 0.002 0.226 0.007 1.073 0.053 2.137 0.144 3.198 0.257 0.328 0.035 0.652 0.082 0.977 0.122 0.743 0.093 1.481 0.195 2.216 0.317 0.372 0.062 0.743 0.126 1.113 0.195 0.711 0.131 1.419 0.277 2.121 0.437 0.344 0.078 0.689 0.151 1.031 0.235 0.862 0.211 1.716 0.441 2.564 0.692 0.164 0.049 0.332 0.089 0.494 0.137 1.004 0.304 1.997 0.641 2.979 0.997 0.293 0.106 0.578 0.224 0.869 0.335 0.698 0.266 1.392 0.543 2.077 0.836 0.346 0.146 0.687 0.299 1.028 0.454 0.641 0.288 1.277 0.59 1.906 0.9 0.326 0.162 0.654 0.321 0.977 0.488 0.723 0.375 1.434 0.765 2.139 1.168 0.206 0.117 0.414 0.226 0.618 0.346 0.895 0.528 1.778 1.079 2.644 1.653 0.239 0.157 0.472 0.328 0.709 0.49 0.629 0.43 1.252 0.869 1.866 1.325 0.301 0.224 0.598 0.454 0.898 0.685 0.55 0.423 1.090 0.858 1.625 1.303 0.288 0.239 0.576 0.477 0.858 0.72 0.585 0.505 1.159 1.028 1.724 1.558 0.202 0.191 0.412 0.372 0.612 0.565 0.749 0.723 1.481 1.465 2.19 2.228 0.175 0.188 0.341 0.386 0.514 0.576 0.536 0.59 1.062 1.19 1.574 1.804 0.237 0.284 0.465 0.572 0.696 0.86 0.441 0.55 0.873 1.108 1.297 1.676 0.226 0.304 0.45 0.605 0.669 0.913 0.441 0.618 0.867 1.25 1.283 1.886 0.166 0.255 0.341 0.505 0.503 0.762 0.565 0.893 1.108 1.802 1.625 2.731 0.098 0.177 0.186 0.361 0.284 0.539 0.414 0.762 0.813 1.534 1.192 2.318 0.16 0.328 0.308 0.661 0.461 0.991 0.304 0.661 0.598 1.33 0.878 2.006 0.146 0.355 0.293 0.711 0.432 1.071 0.279 0.714 0.541 1.438 0.791 2.168 0.106 0.31 0.222 0.616 0.324 0.931 0.337 1.040 0.652 2.090 0.931 3.156 0.033 0.124 0.058 0.25 0.089 0.375 0.242 0.949 0.459 1.908 0.654 2.879 0.071 0.355 0.131 0.716 0.195 1.073 0.137 0.762 0.262 1.527 0.37 2.301 0.055 0.397 0.106 0.793 0.155 1.192 0.093 0.791 0.168 1.589 0.228 2.392 0.027 0.357 0.062 0.714 0.082 1.073 0.069 1.157 0.111 2.323 0.111 3.502v26.662c0 15.914 12.9 28.814 28.814 28.814h112.744c47.74 0 86.442 38.701 86.442 86.442v198.468c0.002 16.375-13.658 29.561-30.204 28.783zM132.078 137.571c-10.736 4.475-17.732 14.965-17.732 26.597 0 92.911 0 496.241 0.002 619.203 0 19.667 19.268 33.535 37.926 27.316l168.577-56.191c11.765-3.921 19.702-14.932 19.702-27.335v-633.229c0-20.56-20.912-34.508-39.892-26.6-60.522 25.214-168.583 70.239-168.583 70.239z" />
<glyph unicode="&#xe62a;" glyph-name="mark" d="M825.005 562.18c-15.914 0-28.814-12.9-28.814-28.814v-311.932c0-31.777-25.85-57.628-57.628-57.628h-453.127c-31.775 0-57.628 25.85-57.628 57.628v453.129c0 31.777 25.853 57.628 57.628 57.628h311.928c15.914 0 28.814 12.9 28.814 28.814s-12.9 28.814-28.814 28.814h-311.928c-63.552 0-115.255-51.703-115.255-115.255v-453.129c0-63.552 51.703-115.255 115.255-115.255h453.127c63.552 0 115.255 51.703 115.255 115.255v311.932c0 15.912-12.9 28.814-28.814 28.814z" />
<glyph unicode="&#xe62b;" glyph-name="validate" d="M825.005 562.18c-15.914 0-28.814-12.9-28.814-28.814v-311.932c0-31.777-25.85-57.628-57.628-57.628h-453.127c-31.775 0-57.628 25.85-57.628 57.628v453.129c0 31.777 25.853 57.628 57.628 57.628h311.928c15.914 0 28.814 12.9 28.814 28.814s-12.9 28.814-28.814 28.814h-311.928c-63.552 0-115.255-51.703-115.255-115.255v-453.129c0-63.552 51.703-115.255 115.255-115.255h453.127c63.552 0 115.255 51.703 115.255 115.255v311.932c0 15.912-12.9 28.814-28.814 28.814zM361.645 496.828c-11.253 11.251-29.497 11.251-40.749 0-11.253-11.253-11.253-29.497 0-40.749l92.614-92.614c10.763-10.763 25.567-16.878 40.769-16.878 0.377 0 0.756 0.004 1.135 0.011 15.597 0.315 30.611 7.066 41.191 18.53l321.122 347.879c10.792 11.692 10.065 29.922-1.629 40.716-11.687 10.79-29.92 10.067-40.716-1.629l-300.781-325.843c-11.1-12.024-29.975-12.403-41.547-0.831l-71.407 71.41z" />
<glyph unicode="&#xe62c;" glyph-name="deny" d="M825.005 562.18c-15.914 0-28.814-12.9-28.814-28.814v-311.932c0-31.777-25.85-57.628-57.628-57.628h-453.127c-31.775 0-57.628 25.85-57.628 57.628v453.129c0 31.777 25.853 57.628 57.628 57.628h311.928c15.914 0 28.814 12.9 28.814 28.814s-12.9 28.814-28.814 28.814h-311.928c-63.552 0-115.255-51.703-115.255-115.255v-453.129c0-63.552 51.703-115.255 115.255-115.255h453.127c63.552 0 115.255 51.703 115.255 115.255v311.932c0 15.912-12.9 28.814-28.814 28.814zM491.624 509.123l-129.982 129.982c-11.253 11.251-29.497 11.251-40.749 0-11.253-11.253-11.253-29.497 0-40.749l129.982-129.982c11.253-11.253 11.253-29.497 0-40.749l-129.982-129.982c-11.253-11.253-11.253-29.497 0-40.749 5.628-5.625 12.999-8.44 20.374-8.44s14.748 2.815 20.374 8.44l129.982 129.982c11.253 11.253 29.497 11.253 40.749 0l129.982-129.982c5.625-5.625 12.999-8.44 20.374-8.44 7.372 0 14.746 2.813 20.369 8.436 11.215 11.211 10.61 30.148-0.603 41.359l-129.374 129.374c-11.253 11.253-11.253 29.497 0 40.749l129.305 129.305c11.217 11.217 12.066 29.614 1.057 41.038-11.215 11.639-29.751 11.767-41.131 0.388l-129.982-129.982c-11.248-11.248-29.492-11.248-40.745 0.002z" />
<glyph unicode="&#xe62d;" glyph-name="edit" d="M825.005 562.18c-15.914 0-28.814-12.9-28.814-28.814v-311.932c0-31.777-25.85-57.628-57.628-57.628h-453.127c-31.775 0-57.628 25.85-57.628 57.628v453.129c0 31.777 25.853 57.628 57.628 57.628h311.928c15.914 0 28.814 12.9 28.814 28.814s-12.9 28.814-28.814 28.814h-311.928c-63.552 0-115.255-51.703-115.255-115.255v-453.129c0-63.552 51.703-115.255 115.255-115.255h453.127c63.552 0 115.255 51.703 115.255 115.255v311.932c0 15.912-12.9 28.814-28.814 28.814zM877.506 788.331l-56.874 45.435c-10.621 8.485-23.319 12.605-35.931 12.605-16.918 0-33.681-7.416-45.060-21.661l-333.39-410.385c-3.245-4.061-5.069-9.072-5.198-14.27l-2.866-116.093c-0.339-13.707 10.783-24.403 23.743-24.403 1.928 0 3.901 0.237 5.88 0.738l112.593 28.435c5.040 1.272 9.524 4.16 12.769 8.221l333.39 410.385c19.866 24.866 15.81 61.127-9.056 80.994zM506.126 339.514l-12.432-3.141c-18.487-4.67-36.33 9.584-35.86 28.648l0.301 12.248c0.157 6.372 2.423 12.512 6.441 17.457l302.007 371.752c9.961 12.261 27.934 14.216 40.297 4.384l11.862-9.433c12.547-9.978 14.538-28.277 4.431-40.721l-301.739-371.426c-3.916-4.821-9.287-8.247-15.309-9.768z" />
<glyph unicode="&#xe62e;" glyph-name="write" d="M847.464 763.188l-164.219 44.003c-15.371 4.118-31.17-5.003-35.29-20.374l-163.43-609.927c-1.629-6.078-1.223-12.521 1.155-18.348l53.131-130.152c4.666-11.428 15.551-17.933 26.737-17.933 6.095 0 12.281 1.933 17.596 6.055l111.088 86.149c4.971 3.857 8.547 9.234 10.176 15.311l163.428 609.925c4.123 15.373-5 31.172-20.371 35.29zM797.259 687.151l-143.493-535.525c-1.629-6.078-5.202-11.455-10.174-15.311l-35.78-27.746c-15.067-11.685-37.128-5.774-44.333 11.88l-17.113 41.918c-2.378 5.825-2.784 12.27-1.155 18.348l143.493 535.525c4.118 15.371 19.919 24.494 35.29 20.374l52.891-14.172c15.371-4.12 24.494-19.919 20.374-35.29zM924.876 830.823l-47.762 12.798c-8.037 2.154-15.019 7.43-18.773 14.855-7.051 13.937-19.769 24.931-36.042 29.293l-54.97 14.731c-20.028 5.366-40.413-0.656-54.31-14.088-3.059-2.957-6.796-5.113-10.885-6.286-0.481-0.137-0.96-0.281-1.438-0.432-24.722-7.786-23.359-43.458 1.678-50.165l180.288-48.308c14.589-3.91 23.246-18.904 19.336-33.493l-88.665-330.896c-2.044-7.627-0.993-15.595 2.955-22.435 3.947-6.838 10.324-11.729 17.951-13.775 2.513-0.672 5.093-1.013 7.669-1.013 13.345 0 25.079 9.012 28.541 21.918l92.592 349.849 2.077 7.749-0.024 0.007 0.284 1.071c7.432 30.015-10.499 60.582-40.501 68.621zM455.090 49.988h-313.005c-15.914 0-28.814-12.9-28.814-28.814s12.9-28.814 28.814-28.814h313.005c15.914 0 28.814 12.9 28.814 28.814s-12.9 28.814-28.814 28.814z" />
<glyph unicode="&#xe62f;" glyph-name="look" d="M953.506 465.969c-49.759 62.495-228.56 266.581-441.506 266.581s-391.746-204.086-441.506-266.581c-8.38-10.524-8.38-25.414 0-35.938 49.759-62.495 228.56-266.581 441.506-266.581s391.746 204.086 441.506 266.581c8.38 10.524 8.38 25.414 0 35.938zM876.927 428.803c-27.772-30.946-68.579-72.232-117.813-109.59-85.821-65.117-168.962-98.136-247.114-98.136s-161.293 33.018-247.114 98.136c-49.234 37.356-90.043 78.644-117.813 109.59-9.797 10.916-9.797 27.48 0 38.396 27.772 30.946 68.579 72.232 117.813 109.59 85.821 65.117 168.962 98.136 247.114 98.136s161.293-33.018 247.114-98.136c49.234-37.356 90.043-78.644 117.813-109.59 9.797-10.918 9.797-27.48 0-38.396zM512 619.090c-94.337 0-171.088-76.751-171.088-171.088s76.749-171.088 171.088-171.088c94.339 0 171.090 76.751 171.090 171.088s-76.751 171.088-171.090 171.088zM512 334.54c-62.562 0-113.46 50.899-113.46 113.46s50.899 113.46 113.46 113.46c62.564 0 113.462-50.899 113.462-113.46s-50.901-113.46-113.462-113.46zM569.628 448c0-31.827-25.801-57.628-57.628-57.628s-57.628 25.801-57.628 57.628c0 31.827 25.801 57.628 57.628 57.628s57.628-25.801 57.628-57.628z" />
<glyph unicode="&#xe630;" glyph-name="time" d="M633.408 427.766c-4.892 13.046-4.892 27.422 0 40.468l155.989 354.191c16.774 38.090-11.12 80.854-52.74 80.854h-449.314c-41.618 0-69.515-42.766-52.74-80.854l155.989-354.191c4.892-13.046 4.892-27.422 0-40.468l-155.987-354.191c-16.774-38.090 11.12-80.854 52.74-80.854h449.314c41.618 0 69.515 42.766 52.74 80.854l-155.992 354.191zM331.517 50.347c-20.81 0-34.756 21.382-26.369 40.428l138.836 315.241 0.567 1.514c9.786 26.092 9.786 54.846 0 80.938l-0.567 1.514-0.652 1.478-138.185 313.765c-8.387 19.044 5.561 40.428 26.369 40.428h360.964c20.81 0 34.761-21.373 26.374-40.417-40.918-92.911-138.189-313.774-138.189-313.774l-0.652-1.478-0.567-1.514c-9.783-26.092-9.783-54.844 0-80.936l0.567-1.514 0.652-1.478 138.185-313.763c8.387-19.044-5.561-40.428-26.369-40.428h-360.964zM485.768 360.067l-97.526-214.559c-8.671-19.077 5.275-40.736 26.232-40.736h195.054c20.957 0 34.902 21.659 26.232 40.736l-97.528 214.559c-10.238 22.521-42.226 22.521-52.463 0z" />
<glyph unicode="&#xe631;" glyph-name="search" d="M699.328 903.27c-149.152 1.281-272.694-121.158-272.692-270.316 0-60.046 19.591-115.508 52.714-160.373 4.012-5.433 3.529-12.955-1.246-17.729l-0.217-0.217c-4.632-4.632-11.827-5.16-17.304-1.565-9.285 6.093-20.143 9.367-31.507 9.367-15.393 0-29.867-5.993-40.749-16.878l-309.301-309.297c-35.12-35.122-33.335-93.383 5.348-126.154 14.575-12.346 33.067-19.46 52.158-20.132 24.053-0.847 46.805 8.132 63.73 25.053l309.299 309.299c19.62 19.622 22.096 49.985 7.445 72.329-3.571 5.446-2.99 12.609 1.614 17.215l0.233 0.233c4.774 4.774 12.297 5.257 17.729 1.248 44.865-33.123 100.328-52.716 160.373-52.716 149.158-0.002 271.597 123.541 270.316 272.694-1.266 147.414-120.528 266.674-267.942 267.94zM160.13 56.395c-5.073-5.073-11.763-8.42-18.928-8.806-8.303-0.446-16.173 2.68-21.887 8.662-10.635 11.135-9.854 28.942 1.033 39.83 44.209 44.209 227.785 227.782 288.863 288.863 10.971 10.971 28.761 10.969 39.732-0.002v0c10.971-10.971 10.971-28.761 0-39.734l-288.812-288.812zM696.958 420.263c-117.281 0-212.695 95.414-212.695 212.695s95.414 212.695 212.695 212.695c117.281 0 212.695-95.414 212.695-212.695s-95.416-212.695-212.695-212.695zM839.232 647.543c-15.914 0-28.814-12.9-28.814-28.814 0-54.72-44.515-99.233-99.233-99.233-15.914 0-28.814-12.9-28.814-28.814s12.9-28.814 28.814-28.814c86.493 0 156.86 70.368 156.86 156.86 0 15.914-12.9 28.814-28.814 28.814z" />
<glyph unicode="&#xe632;" glyph-name="zoom-in" d="M796.55 661.77h-70.78v70.78c0 15.914-12.9 28.814-28.814 28.814s-28.814-12.9-28.814-28.814v-70.78h-70.78c-15.914 0-28.814-12.9-28.814-28.814s12.9-28.814 28.814-28.814h70.78v-70.778c0-15.914 12.9-28.814 28.814-28.814s28.814 12.9 28.814 28.814v70.778h70.78c15.914 0 28.814 12.9 28.814 28.814s-12.9 28.814-28.814 28.814zM699.328 903.27c-149.152 1.281-272.694-121.158-272.692-270.316 0-60.046 19.591-115.508 52.714-160.373 4.012-5.433 3.529-12.955-1.246-17.729l-0.217-0.215c-4.632-4.632-11.827-5.16-17.304-1.565-9.285 6.093-20.143 9.367-31.507 9.367-15.393 0-29.867-5.993-40.749-16.878l-309.301-309.299c-35.12-35.122-33.335-93.383 5.348-126.154 14.575-12.346 33.067-19.46 52.158-20.132 24.053-0.847 46.805 8.132 63.73 25.053l309.299 309.299c19.62 19.622 22.096 49.985 7.445 72.329-3.571 5.446-2.99 12.609 1.614 17.215l0.233 0.233c4.774 4.774 12.297 5.257 17.729 1.246 44.865-33.123 100.328-52.714 160.373-52.716 149.158-0.002 271.597 123.541 270.316 272.694-1.266 147.416-120.528 266.677-267.942 267.942zM448.942 345.21l-288.812-288.815c-5.073-5.073-11.763-8.42-18.928-8.806-8.303-0.446-16.173 2.68-21.887 8.662-10.635 11.135-9.854 28.942 1.033 39.83 44.209 44.209 227.785 227.782 288.863 288.863 10.971 10.971 28.761 10.969 39.732-0.002v0c10.974-10.971 10.974-28.761 0-39.732zM696.958 420.263c-117.281 0-212.695 95.414-212.695 212.695s95.414 212.695 212.695 212.695c117.281 0 212.695-95.414 212.695-212.695s-95.416-212.695-212.695-212.695z" />
<glyph unicode="&#xe633;" glyph-name="zoom-out" d="M796.55 604.142h-199.186c-15.914 0-28.814 12.9-28.814 28.814s12.9 28.814 28.814 28.814h199.186c15.914 0 28.814-12.9 28.814-28.814s-12.9-28.814-28.814-28.814zM699.328 903.27c-149.152 1.281-272.694-121.158-272.692-270.316 0-60.046 19.591-115.508 52.714-160.373 4.012-5.433 3.529-12.955-1.246-17.729l-0.217-0.217c-4.632-4.632-11.827-5.16-17.304-1.565-9.285 6.093-20.143 9.367-31.507 9.367-15.393 0-29.867-5.993-40.749-16.878l-309.301-309.297c-35.12-35.122-33.335-93.383 5.348-126.154 14.575-12.346 33.067-19.46 52.158-20.132 24.053-0.847 46.805 8.132 63.73 25.053l309.299 309.299c19.62 19.622 22.096 49.985 7.445 72.329-3.571 5.446-2.99 12.609 1.614 17.215l0.233 0.233c4.774 4.774 12.297 5.257 17.729 1.248 44.865-33.123 100.328-52.716 160.373-52.716 149.158-0.002 271.597 123.541 270.316 272.694-1.266 147.414-120.528 266.674-267.942 267.94zM160.13 56.395c-5.073-5.073-11.763-8.42-18.928-8.806-8.303-0.446-16.173 2.68-21.887 8.662-10.635 11.135-9.854 28.942 1.033 39.83 44.209 44.209 227.785 227.782 288.863 288.863 10.971 10.971 28.761 10.969 39.732-0.002v0c10.971-10.971 10.971-28.761 0-39.734l-288.812-288.812zM696.958 420.263c-117.281 0-212.695 95.414-212.695 212.695s95.414 212.695 212.695 212.695c117.281 0 212.695-95.414 212.695-212.695s-95.416-212.695-212.695-212.695z" />
<glyph unicode="&#xe634;" glyph-name="bullseye" d="M881.101 476.814h-89.722c-13.72 0-25.456 9.693-28.231 23.131-20.613 99.807-99.399 178.59-199.203 199.203-13.436 2.775-23.131 14.511-23.131 28.231v89.722c0 15.515-11.922 28.865-27.422 29.594-16.546 0.78-30.206-12.403-30.206-28.778v-90.538c0-13.72-9.693-25.456-23.131-28.231-99.807-20.613-178.59-99.397-199.203-199.203-2.775-13.436-14.511-23.131-28.231-23.131h-89.722c-15.515 0-28.865-11.922-29.594-27.422-0.78-16.546 12.405-30.206 28.781-30.206h90.538c13.72 0 25.456-9.693 28.231-23.131 20.613-99.807 99.397-178.59 199.203-199.203 13.436-2.775 23.131-14.511 23.131-28.231v-89.724c0-15.515 11.922-28.865 27.422-29.594 16.546-0.78 30.206 12.405 30.206 28.781v90.538c0 13.72 9.693 25.456 23.131 28.231 99.807 20.613 178.59 99.397 199.203 199.203 2.775 13.436 14.511 23.131 28.231 23.131h90.538c16.375 0 29.561 13.66 28.781 30.206-0.734 15.5-14.083 27.422-29.598 27.422zM512 249.173c-109.632 0-198.827 89.192-198.827 198.827s89.192 198.827 198.827 198.827c109.634 0 198.827-89.192 198.827-198.827s-89.192-198.827-198.827-198.827zM597.364 448c0-47.145-38.219-85.364-85.364-85.364s-85.364 38.219-85.364 85.364c0 47.145 38.219 85.364 85.364 85.364s85.364-38.219 85.364-85.364z" />
<glyph unicode="&#xe635;" glyph-name="forbidden" d="M512 846.371c-220.014 0-398.371-178.356-398.371-398.371s178.356-398.371 398.371-398.371 398.371 178.358 398.371 398.371c0 220.014-178.358 398.371-398.371 398.371zM752.941 207.059c-64.357-64.357-149.925-99.8-240.941-99.8s-176.585 35.443-240.941 99.8c-64.357 64.357-99.802 149.925-99.802 240.941s35.443 176.585 99.802 240.941c64.357 64.357 149.925 99.802 240.941 99.802s176.585-35.443 240.941-99.8c64.357-64.357 99.802-149.925 99.802-240.941s-35.445-176.587-99.802-240.944zM645.517 540.77c11.217 11.217 12.066 29.614 1.057 41.038-11.215 11.639-29.751 11.767-41.131 0.388l-73.072-73.072c-11.253-11.253-29.497-11.253-40.749 0l-73.070 73.072c-11.253 11.253-29.497 11.253-40.749 0s-11.253-29.497 0-40.749l73.072-73.072c11.253-11.253 11.253-29.497 0-40.749l-73.072-73.072c-11.253-11.253-11.253-29.497 0-40.749 5.628-5.625 12.999-8.44 20.374-8.44s14.748 2.815 20.374 8.44l73.070 73.072c11.253 11.253 29.497 11.253 40.749 0l73.070-73.072c5.628-5.628 12.999-8.44 20.374-8.44 7.372 0 14.748 2.813 20.374 8.438 11.211 11.211 10.603 30.148-0.607 41.359l-72.462 72.462c-11.253 11.253-11.253 29.497 0 40.749l72.4 72.398z" />
</font>
</defs>
</svg>
